<?xml version="1.0" standalone="no"?>
<!DOCTYPE svg PUBLIC "-//W3C//DTD SVG 20010904//EN"
 "http://www.w3.org/TR/2001/REC-SVG-20010904/DTD/svg10.dtd">
<svg version="1.0" xmlns="http://www.w3.org/2000/svg"
 width="4096.000000pt" height="4096.000000pt" viewBox="0 0 4096.000000 4096.000000"
 preserveAspectRatio="xMidYMid meet">

<g transform="translate(0.000000,4096.000000) scale(0.100000,-0.100000)"
fill="#000000" stroke="none">
<path d="M12372 32507 c-29 -35 -97 -56 -197 -60 -93 -4 -132 -14 -185 -47
-99 -61 -216 -77 -429 -61 -74 6 -234 14 -355 17 -193 6 -229 5 -281 -10 -82
-24 -101 -38 -131 -98 -23 -46 -26 -60 -21 -115 4 -35 10 -70 14 -77 22 -37
101 -120 147 -153 54 -39 233 -216 277 -274 41 -54 61 -99 75 -169 15 -80 41
-138 94 -210 27 -38 42 -70 46 -100 8 -65 11 -70 38 -70 68 0 126 -67 200
-230 26 -58 66 -143 88 -190 22 -47 57 -121 78 -165 21 -44 54 -116 74 -160
20 -44 42 -89 48 -100 31 -54 181 -361 193 -396 8 -22 23 -52 33 -67 10 -15
27 -47 37 -72 10 -25 26 -56 36 -70 9 -14 20 -36 24 -50 4 -14 20 -50 36 -80
15 -30 67 -136 115 -235 48 -99 96 -192 105 -206 10 -14 27 -48 38 -75 10 -27
34 -74 53 -105 19 -31 127 -244 242 -475 114 -230 212 -428 219 -439 6 -11 61
-119 122 -240 61 -121 121 -238 133 -260 31 -58 260 -530 323 -665 29 -63 68
-138 86 -166 18 -28 33 -54 33 -57 0 -8 94 -202 114 -237 8 -14 26 -47 38 -75
28 -59 132 -267 155 -310 23 -43 98 -195 272 -550 83 -170 155 -317 160 -325
15 -24 396 -788 532 -1065 67 -137 173 -355 235 -482 63 -128 114 -235 114
-238 0 -8 204 -424 480 -980 148 -297 332 -670 410 -830 78 -159 205 -416 282
-570 77 -154 162 -332 188 -395 63 -151 208 -450 300 -620 40 -74 98 -182 128
-240 30 -58 60 -112 67 -120 7 -8 18 -33 25 -55 7 -22 16 -45 21 -50 7 -9 68
-131 138 -275 12 -25 28 -56 36 -70 7 -14 50 -99 95 -190 45 -91 88 -172 95
-180 7 -8 27 -39 45 -69 17 -30 53 -77 78 -103 26 -27 52 -58 58 -69 30 -57
304 -313 414 -388 19 -13 37 -26 40 -30 3 -4 46 -32 95 -63 50 -31 102 -66
116 -77 46 -36 330 -161 423 -186 50 -14 107 -32 126 -40 63 -26 267 -66 405
-79 158 -15 667 -2 770 21 240 52 353 94 544 201 103 57 164 99 361 246 66 49
251 232 340 337 59 69 118 156 161 234 9 17 40 73 69 125 29 52 63 118 75 146
13 28 27 54 33 58 6 3 18 30 28 59 9 28 24 63 34 77 9 14 24 45 34 69 10 25
25 56 35 70 10 14 26 49 36 76 10 28 28 64 40 80 12 17 28 46 35 65 8 19 34
73 59 120 24 47 55 108 69 135 13 28 30 61 38 75 8 14 39 77 69 140 30 63 64
131 75 150 19 33 111 219 186 375 39 81 79 159 98 195 32 57 126 251 126 260
0 4 11 22 24 38 14 16 35 53 46 83 12 29 25 56 30 59 10 7 42 63 102 180 27
52 60 115 73 140 26 48 49 95 247 495 70 143 135 274 144 290 9 17 27 53 41
80 29 58 20 41 119 231 43 82 94 183 115 224 138 282 199 410 199 419 0 6 3
11 8 11 4 0 16 19 26 43 35 76 147 311 162 340 9 15 12 27 8 27 -3 0 1 11 10
25 9 14 15 29 12 33 -3 4 -1 14 5 22 7 12 9 11 10 -5 0 -17 26 45 40 95 2 8
11 22 19 30 8 8 17 24 18 35 2 11 8 22 13 23 5 2 9 12 9 22 0 10 5 22 11 25 5
4 8 12 6 18 -2 7 3 18 10 26 12 11 12 16 1 23 -10 7 -9 8 4 4 24 -7 32 10 11
24 -16 10 -15 10 4 5 19 -5 21 -3 17 19 -3 20 -1 24 11 20 15 -6 20 14 16 64
-1 12 3 22 9 22 5 0 10 -6 11 -12 0 -7 6 3 12 22 9 24 9 37 2 42 -6 5 -2 8 9
8 11 0 16 5 13 14 -3 7 0 19 6 25 6 6 12 19 14 28 11 67 17 82 39 92 21 9 23
14 13 38 -6 15 -7 24 -3 20 4 -3 13 1 20 11 9 13 9 19 1 25 -8 5 -5 7 7 5 10
-2 21 3 23 10 3 6 0 12 -6 12 -6 0 -8 7 -5 15 4 8 10 12 15 9 8 -5 13 9 10 29
0 4 3 7 7 7 5 0 14 11 20 24 10 22 9 24 -9 21 -17 -3 -23 5 -21 27 1 3 -5 8
-12 11 -10 4 -14 -4 -13 -29 1 -19 5 -34 11 -34 5 0 7 -2 4 -5 -8 -9 -59 6
-53 15 3 4 -1 10 -9 13 -18 7 -26 -13 -26 -63 0 -22 -6 -43 -13 -47 -8 -4 -19
-17 -26 -28 -15 -23 -10 -6 14 48 9 22 12 36 7 33 -6 -3 -13 6 -17 21 -5 21
-8 24 -16 12 -6 -10 -9 -10 -9 -1 0 7 7 15 15 18 8 4 15 11 15 16 0 6 -7 5
-16 -3 -13 -10 -17 -10 -24 2 -5 8 -5 18 0 23 4 4 6 14 3 21 -3 10 2 12 16 8
23 -6 26 0 11 27 -8 15 -6 21 10 30 11 6 18 15 15 20 -3 6 -17 -2 -30 -18 -20
-22 -24 -24 -25 -9 0 9 -5 17 -10 17 -6 0 -10 -6 -9 -12 3 -24 -1 -38 -10 -38
-5 0 -8 8 -6 18 1 9 0 11 -2 4 -3 -7 -15 -10 -29 -8 -14 3 -24 0 -24 -7 0 -8
-3 -8 -12 1 -7 7 -19 12 -27 12 -13 0 -13 -2 -2 -9 9 -6 10 -11 2 -15 -19 -12
-32 3 -21 24 5 10 10 21 10 24 0 10 -29 -5 -33 -17 -2 -7 -3 -4 -2 6 2 9 -1
17 -7 17 -5 0 -6 5 -3 10 3 6 0 10 -7 11 -7 0 -23 2 -35 5 -13 2 -23 -1 -23
-6 0 -6 5 -10 12 -10 9 0 9 -3 -1 -12 -10 -11 -14 -9 -22 5 -6 9 -14 15 -20
12 -5 -4 -9 -3 -9 2 0 13 58 43 62 32 2 -5 12 -3 23 6 14 10 15 13 4 9 -13 -4
-16 2 -15 27 0 18 -5 34 -11 36 -9 3 -10 -4 -4 -25 8 -27 7 -29 -11 -24 -15 3
-19 1 -16 -9 5 -16 -37 -40 -57 -32 -8 3 -15 0 -15 -6 0 -14 -10 -14 -30 -1
-13 9 -12 12 4 25 14 11 22 12 27 4 4 -6 12 -10 18 -8 7 3 4 11 -8 21 -18 15
-21 14 -50 -14 -17 -17 -31 -26 -31 -20 0 6 5 14 11 17 6 4 8 13 5 21 -3 7 -1
16 4 19 6 4 10 1 10 -6 0 -7 2 -10 5 -7 3 3 3 13 -1 22 -6 15 -8 14 -24 -4
-21 -24 -35 -26 -26 -4 4 11 2 15 -8 11 -10 -4 -13 -1 -9 9 3 9 12 12 24 9 11
-4 19 -2 19 4 0 17 -20 23 -36 10 -8 -6 -17 -9 -21 -6 -3 4 -12 -1 -19 -11
-10 -13 -12 -14 -11 -2 2 8 6 21 11 28 4 7 5 16 2 19 -7 8 -36 -29 -30 -38 9
-15 -25 -17 -43 -2 -15 12 -15 14 -1 9 20 -6 33 21 17 40 -11 14 -4 34 12 34
6 0 7 -4 4 -10 -3 -5 -2 -18 4 -27 9 -17 10 -17 16 -1 6 15 -21 76 -35 79 -3
1 -14 3 -26 4 -35 4 -85 65 -53 65 5 0 7 5 3 11 -3 6 -14 9 -24 6 -12 -3 -17
0 -14 7 6 15 34 17 34 4 0 -6 5 -8 11 -6 14 5 21 56 9 63 -15 9 1 34 17 28 11
-5 14 -3 9 6 -5 7 -18 10 -30 7 -36 -9 -68 4 -63 25 3 12 -2 20 -14 24 -10 4
-19 13 -19 22 0 9 -6 13 -15 9 -8 -3 -15 -1 -15 4 0 6 -7 10 -15 10 -8 0 -15
-7 -15 -15 0 -8 9 -15 20 -15 11 0 20 -4 20 -10 0 -15 -40 -12 -42 3 -1 6 -2
30 -2 52 -1 28 -5 40 -16 41 -39 3 -41 4 -35 25 6 18 4 20 -17 15 -21 -6 -21
-6 -4 5 25 16 84 -15 98 -51 6 -14 12 -20 15 -12 3 6 10 9 16 6 7 -4 -6 10
-28 30 -22 19 -44 36 -49 36 -5 0 -4 6 1 13 12 16 11 38 -2 35 -5 -2 -9 -8 -7
-15 4 -18 -18 -27 -31 -13 -9 10 -9 11 1 6 19 -11 14 19 -10 60 -15 25 -17 35
-8 29 8 -4 12 -5 8 0 -4 4 -2 15 5 23 10 13 9 14 -2 7 -11 -6 -13 -3 -9 13 4
12 2 22 -2 22 -16 0 -22 -21 -9 -36 10 -12 9 -13 -5 -8 -9 3 -16 12 -16 20 0
8 -5 14 -11 14 -6 0 -8 8 -4 19 4 13 0 20 -15 24 -11 3 -23 1 -26 -5 -4 -5
-17 -8 -31 -5 -21 4 -24 1 -19 -16 4 -15 2 -17 -7 -8 -14 14 3 46 24 46 14 0
19 21 21 82 0 22 4 30 14 26 8 -3 14 0 14 6 0 10 -14 15 -32 12 -5 0 -8 8 -8
19 0 11 -4 20 -9 20 -5 0 -6 -15 -2 -32 4 -18 6 -44 4 -58 -2 -14 -4 -33 -4
-42 0 -10 -4 -18 -9 -18 -12 0 -20 26 -9 37 5 5 -2 8 -19 7 -17 0 -28 -7 -31
-19 -2 -13 1 -16 12 -12 9 3 17 -2 20 -14 5 -20 -7 -26 -18 -9 -9 15 -25 12
-25 -5 0 -21 -16 -19 -41 8 -15 15 -23 18 -26 10 -3 -7 -9 -13 -15 -13 -6 0
-5 7 3 16 20 24 19 43 -2 54 -13 7 -19 7 -19 0 0 -5 -4 -10 -10 -10 -5 0 -7 6
-4 14 7 19 52 16 64 -4 7 -11 10 -11 10 -2 0 7 5 10 10 7 6 -3 10 -15 10 -25
0 -10 5 -22 11 -26 7 -4 10 -1 7 7 -3 8 -1 22 4 32 7 14 13 15 28 7 16 -8 20
-8 20 4 0 11 -9 13 -35 10 -27 -3 -35 -1 -35 11 0 9 -4 14 -9 11 -10 -7 -21
17 -21 46 0 16 -3 18 -13 10 -7 -6 -23 -9 -35 -5 -13 3 -22 1 -22 -6 0 -6 -5
-11 -11 -11 -8 0 -8 4 1 15 6 8 9 18 6 24 -3 5 0 12 6 14 10 4 9 8 -2 16 -8 6
-11 11 -5 11 5 0 4 5 -3 12 -9 9 -15 9 -24 0 -10 -10 -10 -15 2 -22 12 -7 10
-9 -6 -8 -23 2 -28 24 -7 32 17 7 17 33 1 39 -10 4 -9 8 2 16 8 6 11 11 5 11
-5 0 -3 6 6 13 14 11 14 14 -3 31 -13 15 -18 16 -18 5 0 -12 -2 -11 -10 1 -8
13 -10 12 -10 -4 0 -12 5 -16 15 -13 8 4 17 2 20 -2 2 -5 -4 -11 -15 -14 -22
-6 -29 -52 -9 -59 7 -2 5 -9 -5 -17 -14 -11 -16 -11 -16 3 0 10 -4 15 -9 12
-4 -3 -7 11 -5 32 4 33 2 35 -9 20 -13 -16 -15 -14 -25 21 -14 45 -43 74 -66
65 -23 -9 -20 -27 3 -19 14 4 21 0 26 -15 3 -11 10 -20 15 -20 5 0 7 -7 3 -17
-5 -14 -8 -13 -15 6 -4 12 -12 20 -18 16 -6 -4 -6 -15 0 -30 8 -20 6 -25 -6
-25 -8 0 -13 4 -9 9 3 6 -22 22 -55 38 -37 16 -60 33 -59 43 0 10 2 11 6 2 2
-6 8 -10 12 -8 4 3 20 -6 35 -19 22 -19 33 -22 47 -14 11 5 19 12 19 15 0 3
-4 3 -9 0 -5 -4 -23 2 -39 11 -22 13 -27 20 -18 28 6 5 9 9 7 7 -3 -1 -11 8
-19 20 -7 13 -11 15 -8 6 2 -9 -2 -19 -9 -22 -11 -4 -13 2 -9 27 l5 32 -21
-25 c-21 -24 -22 -24 -36 -5 -16 22 -19 39 -4 30 6 -3 10 3 10 14 0 11 4 22 9
26 6 3 6 -7 0 -27 -11 -40 -11 -38 1 -38 6 0 10 9 10 19 0 11 5 21 11 23 8 3
6 14 -5 36 -23 44 -57 83 -68 76 -4 -3 -8 4 -8 16 0 13 -4 19 -12 14 -7 -5 -8
-3 -3 6 7 11 10 10 19 -1 6 -8 18 -15 26 -17 8 -1 4 7 -10 18 -14 11 -29 20
-35 20 -5 0 -2 5 8 11 18 10 24 49 8 49 -6 0 -8 -9 -6 -20 2 -13 0 -18 -7 -14
-5 4 -14 0 -19 -7 -7 -11 -9 -9 -9 7 0 13 -8 24 -19 27 -15 3 -18 1 -15 -12 3
-9 -2 -3 -11 12 -15 27 -17 28 -30 11 -10 -15 -17 -16 -36 -7 -18 9 -19 12 -7
12 9 1 20 6 24 13 5 8 2 9 -9 5 -10 -3 -17 -3 -17 1 0 4 14 13 30 19 17 6 30
17 30 24 0 8 -6 7 -18 -4 -23 -21 -36 -22 -29 -3 7 17 -19 30 -52 27 -16 -2
-21 1 -16 10 5 8 4 10 -3 5 -7 -4 -12 -3 -12 3 0 5 5 11 11 13 7 2 5 9 -5 17
-13 11 -16 11 -16 -1 0 -11 -9 -14 -30 -12 -30 4 -30 3 -15 -18 8 -13 15 -27
15 -33 0 -5 -5 -2 -11 8 -5 9 -18 17 -27 16 -10 0 -12 -3 -4 -6 14 -5 17 -43
3 -43 -5 0 -12 11 -15 25 -5 18 -11 23 -24 17 -15 -6 -15 -7 -1 -10 26 -5 30
-49 6 -56 -10 -2 -16 -9 -12 -15 3 -6 1 -11 -6 -11 -7 0 -9 -3 -6 -7 4 -3 15
1 24 9 30 25 43 31 37 14 -3 -8 2 -16 13 -19 14 -4 14 -5 -4 -6 -13 0 -23 4
-23 10 0 5 -5 7 -10 4 -6 -4 -8 -10 -5 -15 11 -17 -6 -38 -27 -32 -11 3 -24
-1 -30 -9 -7 -10 -8 -7 -5 13 3 20 0 25 -12 21 -9 -3 -22 -7 -29 -9 -10 -3
-10 -9 -2 -24 9 -16 8 -20 -5 -20 -8 0 -15 -6 -15 -14 0 -7 -8 -20 -17 -27
-16 -13 -17 -12 -4 4 7 9 10 17 6 17 -4 0 -3 6 2 13 5 6 10 26 12 42 2 29 2
29 -12 10 -9 -11 -13 -23 -11 -27 3 -5 1 -8 -5 -8 -13 0 -10 43 4 52 6 5 3 8
-7 8 -11 0 -15 7 -12 23 4 22 4 22 -6 -1 -5 -13 -8 -28 -4 -33 3 -5 0 -17 -6
-26 -10 -16 -10 -16 -6 2 4 13 -1 24 -13 32 -16 10 -20 9 -25 -10 -3 -12 -3
-40 -1 -62 l5 -40 -14 38 c-9 21 -13 45 -10 55 6 21 -12 -16 -20 -40 -3 -11
-12 -15 -25 -11 -22 6 -35 32 -36 73 -1 14 -5 32 -9 39 -7 10 -4 11 13 2 18
-10 20 -9 14 6 -6 15 -4 16 9 5 13 -10 17 -10 22 0 5 10 7 10 12 0 3 -6 10
-10 14 -7 9 5 -7 54 -21 65 -15 13 -16 40 -3 58 10 15 11 23 3 28 -7 4 -9 3
-6 -2 3 -5 -3 -20 -12 -33 l-18 -24 -6 22 c-3 14 0 24 9 28 8 3 14 13 14 22 0
11 -7 7 -26 -14 -14 -16 -23 -25 -20 -19 3 7 -4 12 -19 12 -16 0 -22 -5 -18
-12 4 -6 -1 -5 -10 3 -15 12 -17 11 -17 -3 0 -9 -4 -16 -10 -16 -6 0 -6 -9 0
-26 7 -16 7 -23 0 -19 -6 3 -10 13 -10 21 0 8 -7 14 -17 14 -9 0 -13 -3 -10
-6 3 -4 0 -16 -8 -28 -8 -11 -15 -29 -15 -38 0 -10 -6 -28 -12 -40 -17 -29
-48 -60 -48 -49 0 6 4 12 9 16 10 5 41 63 41 74 0 3 -9 -7 -19 -22 -10 -16
-22 -27 -26 -25 -4 2 -15 -15 -26 -36 -15 -32 -16 -42 -6 -54 10 -13 9 -15 -5
-9 -13 4 -16 2 -12 -11 5 -14 2 -13 -11 3 -17 20 -17 20 -10 -5 4 -14 10 -30
12 -36 2 -7 -1 -15 -8 -20 -9 -5 -10 -2 -6 9 3 10 2 17 -3 17 -12 0 -28 -32
-23 -45 2 -6 -10 -21 -26 -33 -16 -12 -35 -38 -42 -59 -7 -21 -20 -51 -30 -68
-10 -16 -32 -58 -49 -92 -18 -35 -36 -61 -40 -58 -4 3 -11 -7 -14 -23 -10 -39
-30 -82 -38 -82 -5 0 -8 -6 -8 -14 0 -8 -3 -16 -8 -18 -7 -3 -61 -110 -127
-250 -14 -32 -31 -58 -36 -58 -5 0 -9 -11 -9 -25 0 -14 -4 -25 -10 -25 -5 0
-10 -8 -10 -19 0 -10 -11 -30 -25 -45 -14 -15 -25 -35 -25 -44 -1 -9 -7 -28
-15 -42 -8 -14 -14 -37 -15 -52 0 -16 -5 -28 -11 -28 -5 0 -16 -15 -24 -34 -8
-19 -19 -38 -25 -41 -6 -4 -8 -10 -5 -15 3 -4 -2 -13 -11 -20 -8 -7 -30 -45
-50 -84 -19 -39 -40 -81 -48 -94 -8 -13 -22 -44 -32 -68 -10 -24 -21 -44 -25
-44 -4 0 -15 -21 -25 -47 -9 -27 -21 -52 -26 -58 -4 -5 -8 -17 -8 -27 0 -10
-4 -18 -9 -18 -5 0 -21 -26 -35 -57 -15 -32 -33 -69 -42 -83 -8 -14 -26 -48
-39 -77 -13 -28 -28 -54 -34 -57 -5 -4 -19 -32 -31 -63 -11 -31 -30 -69 -41
-84 -11 -16 -25 -43 -31 -61 -7 -18 -24 -53 -40 -77 -15 -24 -33 -60 -39 -80
-6 -20 -22 -50 -35 -67 -13 -18 -31 -51 -40 -75 -10 -24 -25 -55 -34 -69 -9
-14 -22 -41 -29 -60 -6 -19 -22 -51 -34 -70 -13 -19 -31 -56 -41 -82 -10 -26
-22 -50 -27 -54 -10 -6 -119 -226 -119 -241 0 -4 -16 -33 -35 -63 -19 -30 -35
-61 -35 -71 0 -9 -13 -35 -30 -57 -16 -23 -30 -44 -30 -47 0 -12 -111 -234
-119 -240 -5 -3 -19 -34 -31 -70 -12 -36 -26 -65 -31 -65 -4 0 -38 -60 -74
-132 -36 -73 -79 -155 -95 -183 -16 -27 -30 -57 -30 -66 0 -9 -7 -22 -16 -30
-8 -7 -26 -33 -39 -58 -29 -57 -62 -89 -112 -106 -33 -12 -42 -11 -68 4 -16 9
-47 39 -68 67 -37 47 -213 395 -312 614 -26 58 -76 162 -111 231 -57 114 -86
180 -174 389 -15 36 -57 125 -94 197 -84 169 -198 422 -221 491 -9 29 -41 102
-71 162 -30 61 -63 132 -73 159 -11 26 -31 65 -45 86 -14 21 -26 43 -26 49 0
6 -35 83 -79 171 -43 88 -127 259 -185 380 -59 121 -113 231 -121 245 -8 14
-24 45 -35 70 -12 25 -28 56 -36 70 -9 14 -29 54 -46 90 -16 36 -36 72 -42 80
-7 8 -23 42 -36 75 -13 33 -34 77 -47 97 -13 21 -23 44 -23 51 0 8 -12 32 -27
53 -14 21 -36 62 -47 89 -12 28 -33 70 -47 95 -15 25 -32 62 -39 84 -7 21 -23
54 -36 73 -12 18 -26 48 -30 66 -3 18 -15 45 -26 60 -11 15 -28 51 -39 79 -10
28 -29 67 -43 87 -13 20 -30 55 -36 79 -6 23 -22 59 -35 79 -14 20 -25 42 -25
49 0 7 -15 41 -33 76 -19 35 -40 81 -47 103 -7 22 -23 54 -35 70 -13 17 -28
48 -35 70 -7 22 -21 52 -32 67 -10 15 -25 46 -33 69 -9 24 -26 56 -39 73 -13
17 -29 49 -37 71 -8 22 -26 60 -41 84 -16 25 -28 50 -28 57 0 7 -14 38 -31 70
-17 33 -37 76 -45 97 -7 20 -24 52 -37 70 -13 17 -32 55 -42 82 -10 28 -25 61
-35 75 -9 14 -25 48 -35 75 -10 28 -26 60 -35 72 -9 12 -23 42 -29 66 -7 24
-23 55 -35 69 -13 13 -29 42 -36 64 -7 21 -28 67 -47 102 -18 35 -33 69 -33
76 0 6 -16 36 -35 66 -19 30 -35 64 -35 75 0 11 -13 36 -30 55 -16 19 -29 42
-30 51 0 10 -14 43 -31 75 -17 33 -39 83 -49 111 -11 29 -28 62 -38 74 -11 11
-25 42 -32 67 -6 26 -19 56 -29 67 -10 11 -26 40 -35 65 -10 25 -28 63 -40 85
-13 22 -29 58 -36 80 -7 22 -25 58 -41 80 -15 22 -31 53 -35 69 -4 15 -38 89
-75 164 -38 74 -69 141 -69 149 0 7 -16 36 -35 64 -19 28 -35 61 -35 74 0 12
-12 40 -26 61 -15 21 -33 57 -41 78 -7 22 -24 58 -37 81 -13 22 -29 57 -35 77
-7 20 -24 54 -38 75 -14 20 -31 56 -38 79 -7 24 -21 55 -32 71 -11 15 -28 51
-38 78 -10 28 -26 59 -35 70 -10 11 -28 48 -40 82 -12 35 -29 68 -36 74 -8 6
-14 16 -14 22 0 9 -15 43 -117 257 -25 52 -61 129 -80 170 -75 160 -111 226
-174 320 -27 41 -59 90 -70 108 -12 17 -25 32 -30 32 -5 0 -20 17 -33 38 -26
40 -220 239 -277 284 -19 15 -52 42 -74 61 -22 18 -51 41 -65 50 -129 89 -172
116 -215 137 -28 12 -59 31 -71 42 -21 19 -190 88 -264 108 -24 6 -67 23 -96
36 -89 41 -237 56 -464 49 -357 -11 -336 -12 -359 9 -19 18 -35 18 -253 14
-128 -3 -246 -1 -263 3 -40 11 -93 63 -101 97 -15 68 -21 75 -42 49z m9791
-6091 c-5 -7 -9 -5 -11 7 -5 22 -22 12 -22 -14 0 -10 -4 -19 -9 -19 -13 0 -8
25 8 44 10 12 17 14 27 5 8 -6 11 -16 7 -23z m-3 -37 c0 -5 -4 -9 -8 -9 -5 0
-9 7 -9 15 0 8 4 12 9 9 4 -3 8 -9 8 -15z m426 2 c-3 -5 3 -11 14 -14 11 -3
20 -10 20 -16 0 -6 -8 -8 -17 -4 -28 10 -45 43 -22 43 5 0 8 -4 5 -9z m-388
-19 c2 -6 -6 -10 -16 -9 -12 1 -18 6 -15 14 6 16 25 13 31 -5z m480 -14 c-4
-16 -47 -52 -54 -45 -9 8 16 48 26 42 5 -3 11 -1 15 5 9 14 16 13 13 -2z m-73
-48 c3 -5 1 -10 -4 -10 -6 0 -11 5 -11 10 0 6 2 10 4 10 3 0 8 -4 11 -10z m15
-56 c0 -8 4 -13 9 -10 5 3 11 0 14 -7 3 -8 -3 -13 -14 -13 -12 0 -19 7 -19 20
0 19 -1 19 -13 2 -8 -11 -20 -16 -28 -13 -11 4 -10 6 2 6 9 1 19 10 22 22 6
23 27 17 27 -7z m-664 -11 c-10 -10 -19 5 -10 18 6 11 8 11 12 0 2 -7 1 -15
-2 -18z m749 17 c-3 -5 -10 -10 -16 -10 -5 0 -9 5 -9 10 0 6 7 10 16 10 8 0
12 -4 9 -10z m-31 -25 c3 -8 1 -15 -4 -15 -6 0 -10 7 -10 15 0 8 2 15 4 15 2
0 6 -7 10 -15z m-369 -4 c3 -5 1 -12 -5 -16 -5 -3 -10 1 -10 9 0 18 6 21 15 7z
m435 -26 c-5 -6 -7 -15 -3 -18 3 -4 -1 -7 -10 -7 -22 0 -22 16 -1 24 14 5 14
9 3 24 -13 15 -12 16 4 3 12 -9 14 -17 7 -26z m-198 0 c3 -16 1 -25 -7 -25 -8
0 -10 9 -7 25 2 14 6 25 7 25 1 0 5 -11 7 -25z m-94 -10 c0 -14 -4 -25 -9 -25
-5 0 -9 6 -9 13 0 8 -3 7 -9 -3 -6 -8 -7 -19 -4 -25 4 -6 2 -6 -6 1 -8 8 -9
18 -2 37 13 34 39 35 39 2z m136 10 c-4 -8 -11 -15 -16 -15 -6 0 -5 6 2 15 7
8 14 15 16 15 2 0 1 -7 -2 -15z m206 5 c0 -5 -2 -10 -4 -10 -3 0 -8 5 -11 10
-3 6 -1 10 4 10 6 0 11 -4 11 -10z m-28 -32 c-7 -7 -12 -8 -12 -2 0 14 12 26
19 19 2 -3 -1 -11 -7 -17z m-497 -7 c3 -5 1 -12 -5 -16 -5 -3 -10 1 -10 9 0
18 6 21 15 7z m60 -21 c3 -5 1 -10 -4 -10 -6 0 -11 5 -11 10 0 6 2 10 4 10 3
0 8 -4 11 -10z m505 0 c0 -4 -7 -7 -15 -6 -23 3 -26 12 -5 13 11 1 20 -2 20
-7z m-683 -25 c-15 -16 -19 -13 -11 9 3 9 10 13 15 10 5 -3 3 -11 -4 -19z
m106 -11 c-7 -20 -18 -17 -20 5 -1 13 3 18 12 15 8 -3 11 -12 8 -20z m557 -4
c0 -11 -4 -20 -9 -20 -5 0 -7 9 -4 20 3 11 7 20 9 20 2 0 4 -9 4 -20z m21 -7
c-8 -15 -10 -15 -11 -2 0 17 10 32 18 25 2 -3 -1 -13 -7 -23z m36 10 c-4 -3
-2 -12 3 -18 7 -8 4 -18 -10 -30 -11 -10 -20 -13 -20 -7 0 17 19 62 26 62 4 0
4 -3 1 -7z m-115 -35 c-6 -6 -15 -8 -19 -4 -4 4 -1 11 7 16 8 5 17 7 19 4 3
-2 -1 -10 -7 -16z m142 -103 c-4 -8 -10 -15 -15 -15 -4 0 -6 7 -3 15 4 8 10
15 15 15 4 0 6 -7 3 -15z m-19 -65 c3 -5 -1 -10 -9 -10 -9 0 -16 5 -16 10 0 6
4 10 9 10 6 0 13 -4 16 -10z m223 -42 c-6 -18 -25 -21 -25 -3 0 8 7 15 15 15
7 0 12 -5 10 -12z m-14 -40 c-3 -4 -12 -8 -20 -8 -8 0 -13 4 -10 8 3 5 12 9
20 9 8 0 13 -4 10 -9z m104 -76 c6 -18 -15 -14 -22 4 -4 10 -1 14 6 12 6 -2
14 -10 16 -16z m9 -54 c-3 -8 -6 -5 -6 6 -1 11 2 17 5 13 3 -3 4 -12 1 -19z
m68 2 c0 -7 -6 -15 -12 -17 -8 -3 -13 4 -13 17 0 13 5 20 13 18 6 -3 12 -11
12 -18z m119 -161 c-7 -12 -31 -11 -39 1 -4 6 -1 9 7 8 7 -2 12 3 10 11 -3 12
0 12 12 2 9 -7 13 -17 10 -22z m-214 7 c0 -3 -4 -8 -10 -11 -5 -3 -10 -1 -10
4 0 6 5 11 10 11 6 0 10 -2 10 -4z m301 -16 c1 -5 3 -14 4 -20 1 -5 3 -14 4
-20 0 -5 7 -10 15 -10 11 0 13 -7 6 -30 -6 -20 -5 -30 2 -30 6 0 9 -2 6 -5 -3
-4 -18 -3 -34 1 -27 7 -27 7 -6 15 25 10 30 39 6 39 -10 0 -14 6 -10 15 4 10
-1 15 -14 15 -11 0 -20 5 -20 11 0 6 7 8 16 5 12 -4 15 -2 10 9 -3 8 -1 15 4
15 6 0 11 -4 11 -10z m-51 -30 c0 -5 -2 -10 -4 -10 -3 0 -8 5 -11 10 -3 6 -1
10 4 10 6 0 11 -4 11 -10z m40 -41 c0 -5 -7 -9 -15 -9 -15 0 -20 12 -9 23 8 8
24 -1 24 -14z m94 -47 c2 -4 -4 -13 -15 -20 -15 -10 -19 -10 -19 1 0 24 23 36
34 19z m-104 -12 c0 -5 -7 -7 -15 -4 -8 4 -15 8 -15 10 0 2 7 4 15 4 8 0 15
-4 15 -10z m-199 -23 c-10 -9 -11 -8 -5 6 3 10 9 15 12 12 3 -3 0 -11 -7 -18z
m254 -18 c11 -17 -1 -21 -15 -4 -8 9 -8 15 -2 15 6 0 14 -5 17 -11z m29 -60
c20 3 26 0 20 -10 -5 -8 -9 -8 -14 1 -4 6 -11 11 -16 10 -5 -1 -10 4 -12 12
-3 11 -2 11 6 0 5 -8 12 -13 16 -13z m72 -34 c3 -8 4 -20 1 -27 -3 -9 -7 -6
-13 7 -4 11 -12 23 -18 27 -7 5 -4 8 7 8 10 0 20 -7 23 -15z m66 -107 c-9 -9
-15 -9 -24 1 -11 11 -10 13 5 8 10 -4 17 -2 17 5 0 6 3 8 7 5 4 -4 1 -13 -5
-19z m101 -47 c3 -13 1 -18 -9 -14 -7 2 -10 11 -7 19 7 19 10 18 16 -5z m77
-180 c0 -4 -6 -13 -12 -19 -10 -10 -10 -17 0 -32 16 -27 15 -35 -3 -20 -8 7
-15 20 -15 29 0 14 -2 14 -10 1 -11 -17 -13 -6 -4 25 5 19 44 33 44 16z m-70
-96 c-7 -9 -15 -13 -17 -11 -6 6 20 36 26 30 2 -2 -2 -10 -9 -19z m155 -75
c-3 -5 -11 -10 -16 -10 -6 0 -7 5 -4 10 3 6 11 10 16 10 6 0 7 -4 4 -10z m89
-55 c3 -8 1 -15 -3 -15 -5 0 -11 7 -15 15 -3 8 -1 15 3 15 5 0 11 -7 15 -15z
m46 5 c0 -5 -5 -10 -11 -10 -5 0 -7 5 -4 10 3 6 8 10 11 10 2 0 4 -4 4 -10z
m-15 -30 c3 -5 1 -10 -4 -10 -6 0 -11 5 -11 10 0 6 2 10 4 10 3 0 8 -4 11 -10z
m45 -11 c0 -6 -4 -7 -10 -4 -5 3 -10 11 -10 16 0 6 5 7 10 4 6 -3 10 -11 10
-16z m48 1 c-14 -22 -24 -19 -15 5 4 8 11 15 17 15 6 0 6 -7 -2 -20z m166 -18
c3 -5 -1 -9 -9 -9 -8 0 -12 4 -9 9 3 4 7 8 9 8 2 0 6 -4 9 -8z m-94 -27 c0
-12 -19 -12 -23 0 -4 9 -1 12 9 8 7 -3 14 -7 14 -8z m60 5 c0 -5 -2 -10 -4
-10 -3 0 -8 5 -11 10 -3 6 -1 10 4 10 6 0 11 -4 11 -10z m-129 -43 c-10 -9
-11 -8 -5 6 3 10 9 15 12 12 3 -3 0 -11 -7 -18z m140 0 c-10 -9 -11 -8 -5 6 3
10 9 15 12 12 3 -3 0 -11 -7 -18z m103 -72 c-4 -8 -8 -15 -10 -15 -2 0 -4 7
-4 15 0 8 4 15 10 15 5 0 7 -7 4 -15z m10 -30 c-4 -8 -12 -15 -20 -15 -20 0
-17 18 4 23 9 3 18 5 19 6 1 0 0 -6 -3 -14z m-30 -24 c3 -5 -1 -11 -9 -15 -9
-3 -15 0 -15 9 0 16 16 20 24 6z m-44 -15 c0 -3 -4 -8 -10 -11 -5 -3 -10 -1
-10 4 0 6 5 11 10 11 6 0 10 -2 10 -4z m110 -6 c0 -5 -2 -10 -4 -10 -3 0 -8 5
-11 10 -3 6 -1 10 4 10 6 0 11 -4 11 -10z m-86 -26 c4 -10 1 -14 -6 -12 -15 5
-23 28 -10 28 5 0 13 -7 16 -16z"/>
<path d="M10390 28120 c-8 -16 -6 -57 2 -67 8 -9 6 -13 -4 -13 -11 0 -14 -7
-10 -26 3 -19 1 -25 -7 -20 -6 4 -9 12 -5 17 3 6 -3 5 -14 -2 -22 -14 -19 -34
5 -43 13 -5 12 -9 -6 -25 -21 -18 -21 -18 -1 -36 11 -10 23 -15 27 -12 3 4 2
7 -3 7 -5 0 -10 9 -10 20 0 11 4 20 8 20 4 0 8 -6 8 -14 0 -11 5 -12 23 -3 19
9 22 18 22 68 0 47 -3 59 -17 63 -22 5 -24 26 -3 26 8 0 15 5 15 11 0 5 -4 8
-9 4 -5 -3 -12 3 -14 12 -3 10 -6 16 -7 13z m20 -146 c0 -8 -4 -12 -10 -9 -5
3 -10 10 -10 16 0 5 5 9 10 9 6 0 10 -7 10 -16z"/>
<path d="M10410 27913 c0 -6 -3 -18 -6 -27 -3 -9 -2 -16 4 -16 15 0 21 25 11
41 -5 9 -9 9 -9 2z"/>
<path d="M29370 27839 c0 -5 5 -7 10 -4 6 3 10 8 10 11 0 2 -4 4 -10 4 -5 0
-10 -5 -10 -11z"/>
<path d="M10391 27826 c-8 -9 -8 -16 -2 -20 5 -4 12 -2 16 4 3 5 3 10 -2 10
-4 0 -1 5 7 10 8 5 10 10 4 10 -6 0 -17 -6 -23 -14z"/>
<path d="M10410 27021 c-66 -35 -81 -41 -91 -35 -6 3 -14 3 -18 -2 -3 -5 -15
-14 -26 -21 -11 -6 -19 -16 -17 -23 1 -7 -5 -9 -17 -5 -11 3 -22 1 -26 -4 -3
-6 0 -8 8 -5 12 4 15 -7 15 -53 0 -32 2 -71 5 -88 3 -16 9 -76 13 -132 4 -61
11 -103 18 -103 6 0 6 -4 -1 -11 -13 -13 -6 -176 8 -195 4 -5 6 -20 2 -32 -3
-12 -1 -22 3 -22 5 0 10 -23 11 -51 1 -29 5 -59 9 -68 4 -9 8 -38 9 -66 2 -27
6 -61 10 -75 4 -14 8 -38 8 -55 0 -58 19 -219 27 -235 4 -8 11 -37 14 -64 4
-27 11 -57 16 -66 5 -10 12 -37 15 -60 3 -23 7 -51 10 -63 3 -12 7 -35 9 -52
2 -16 9 -52 15 -80 6 -27 14 -61 16 -75 3 -14 8 -31 10 -38 3 -7 9 -41 15 -75
5 -34 21 -96 35 -137 14 -41 35 -111 46 -155 11 -44 28 -105 39 -135 10 -30
30 -91 44 -135 47 -147 86 -260 97 -279 6 -10 21 -50 34 -90 12 -39 29 -87 38
-106 9 -19 28 -66 43 -104 14 -38 49 -117 76 -175 27 -58 58 -126 68 -151 55
-139 348 -727 396 -795 11 -17 40 -66 64 -110 49 -90 99 -169 195 -305 13 -19
33 -53 45 -75 11 -22 33 -56 50 -75 16 -19 30 -39 30 -44 0 -5 12 -25 28 -45
30 -40 64 -88 98 -141 13 -19 37 -53 54 -75 17 -22 54 -72 83 -111 92 -125
133 -177 218 -276 46 -53 106 -123 133 -155 60 -72 151 -171 268 -288 99 -101
97 -98 136 -140 103 -110 478 -461 514 -481 10 -5 45 -35 76 -65 31 -30 95
-88 142 -128 47 -40 99 -85 115 -100 43 -40 213 -171 264 -205 24 -15 60 -31
80 -33 33 -5 41 -1 74 36 45 50 49 91 12 141 -14 19 -25 38 -25 43 0 14 -52
62 -99 92 -23 14 -41 30 -41 35 0 5 -17 19 -37 29 -21 11 -58 39 -83 61 -24
22 -48 40 -52 40 -4 0 -23 15 -42 33 -19 17 -55 48 -81 67 -25 19 -61 49 -80
65 -19 17 -51 44 -71 60 -21 17 -58 50 -84 75 -25 25 -64 58 -86 74 -21 16
-60 50 -86 75 -26 25 -55 53 -65 62 -10 9 -25 24 -33 33 -8 9 -58 60 -110 112
-210 210 -409 421 -453 482 -13 17 -36 41 -50 53 -15 11 -27 26 -27 33 0 7
-12 23 -26 37 -14 13 -35 41 -45 62 -11 20 -24 37 -29 37 -5 0 -22 19 -36 43
-15 23 -35 49 -44 57 -9 8 -25 29 -36 45 -10 17 -27 39 -37 50 -18 20 -41 52
-101 140 -18 28 -43 59 -55 69 -11 11 -21 25 -21 33 0 7 -9 22 -19 32 -11 11
-32 41 -46 68 -15 26 -33 52 -41 56 -8 4 -24 27 -35 50 -12 23 -32 55 -45 70
-13 16 -24 33 -24 39 0 6 -15 31 -34 57 -18 25 -37 56 -40 69 -4 12 -16 27
-28 33 -11 6 -29 32 -40 57 -11 26 -29 56 -39 67 -18 20 -43 64 -98 172 -15
28 -39 63 -53 77 -14 15 -28 39 -31 54 -3 15 -18 45 -32 67 -15 22 -34 62 -42
90 -8 27 -26 62 -39 78 -13 16 -24 37 -24 47 0 10 -15 47 -34 82 -18 35 -37
74 -41 88 -4 14 -20 50 -35 82 -16 31 -34 74 -40 97 -6 22 -22 53 -35 70 -14
16 -30 52 -35 82 -6 29 -21 67 -35 85 -14 18 -31 60 -39 93 -8 33 -25 84 -39
113 -13 29 -27 69 -31 88 -3 19 -19 60 -35 90 -16 30 -34 79 -40 108 -6 29
-22 75 -37 103 -14 28 -31 85 -39 127 -8 43 -22 95 -33 117 -10 22 -25 76 -32
120 -7 44 -26 111 -42 149 -19 43 -33 99 -38 150 -5 44 -19 110 -31 146 -34
101 -50 170 -54 237 -3 34 -9 72 -13 85 -5 13 -8 30 -7 38 0 8 -2 17 -6 20 -6
5 -16 75 -23 164 -2 21 -9 42 -16 46 -9 6 -9 9 -1 15 7 3 10 14 7 23 -3 10 -8
44 -11 77 -3 33 -10 64 -16 70 -13 13 -11 28 3 19 8 -5 9 -2 3 12 -4 10 -9 28
-10 39 -1 11 -4 27 -8 35 -16 41 -25 138 -31 340 -5 163 -17 310 -25 309 -3 0
-13 -4 -21 -8z"/>
<path d="M29366 26962 c-4 -7 -11 -10 -16 -7 -14 8 -42 -37 -30 -49 14 -14 12
-29 -3 -23 -15 6 -21 -29 -6 -38 5 -4 3 -18 -6 -34 -8 -16 -12 -31 -9 -34 9
-9 12 -57 4 -57 -12 0 -17 -69 -6 -73 6 -2 2 -12 -8 -22 -18 -18 -18 -19 4
-27 l23 -8 -22 -19 c-19 -16 -21 -23 -11 -40 8 -16 8 -27 -2 -43 -11 -21 -18
-61 -19 -115 -1 -13 -5 -23 -10 -23 -5 0 -9 -4 -9 -10 0 -5 3 -9 8 -9 19 3 26
-2 13 -10 -8 -5 -14 -29 -15 -60 -1 -34 -6 -55 -16 -61 -10 -7 -11 -10 -2 -10
19 0 14 -21 -7 -27 -15 -4 -18 -13 -15 -46 1 -24 -3 -51 -11 -64 -11 -16 -12
-23 -2 -26 9 -3 9 -7 0 -17 -6 -7 -9 -19 -6 -26 3 -8 0 -14 -7 -14 -10 0 -10
-3 -1 -14 9 -11 9 -15 0 -18 -6 -2 -13 -19 -14 -38 -2 -19 -9 -39 -16 -44 -17
-14 -23 -36 -9 -36 6 0 10 -4 10 -10 0 -5 -8 -10 -17 -10 -12 0 -14 -3 -6 -11
7 -7 8 -22 1 -47 -5 -20 -11 -57 -13 -82 -8 -100 -16 -135 -40 -175 -17 -31
-27 -69 -35 -133 -12 -104 -16 -119 -43 -149 -14 -16 -24 -52 -34 -130 -9 -59
-22 -115 -29 -123 -13 -16 -40 -105 -50 -170 -3 -19 -16 -53 -29 -75 -13 -22
-26 -65 -30 -95 -8 -60 -28 -115 -50 -140 -8 -9 -21 -49 -30 -90 -8 -41 -24
-87 -35 -102 -11 -14 -25 -48 -31 -75 -7 -26 -25 -66 -40 -88 -16 -22 -34 -62
-41 -90 -7 -27 -23 -64 -35 -81 -13 -17 -26 -46 -29 -65 -4 -19 -21 -65 -39
-104 -18 -38 -38 -88 -45 -110 -7 -22 -22 -51 -35 -65 -12 -14 -28 -46 -35
-72 -7 -26 -21 -55 -31 -64 -10 -9 -26 -42 -35 -73 -8 -31 -24 -65 -34 -76
-10 -11 -28 -44 -39 -74 -11 -30 -31 -66 -44 -80 -14 -14 -30 -43 -36 -63 -7
-20 -21 -48 -32 -62 -11 -14 -29 -45 -40 -70 -11 -25 -24 -48 -30 -52 -6 -4
-22 -30 -34 -58 -13 -29 -31 -58 -41 -66 -9 -8 -28 -38 -40 -67 -13 -28 -29
-55 -37 -60 -7 -4 -19 -24 -27 -43 -7 -19 -23 -46 -35 -60 -13 -14 -32 -44
-44 -67 -12 -24 -26 -43 -31 -43 -5 0 -21 -25 -35 -55 -15 -30 -30 -55 -35
-55 -4 0 -20 -25 -35 -54 -15 -30 -34 -57 -41 -60 -7 -3 -21 -20 -30 -38 -9
-18 -28 -44 -42 -58 -13 -14 -46 -56 -73 -95 -27 -38 -62 -84 -77 -102 -15
-17 -43 -52 -62 -78 -19 -26 -43 -55 -53 -64 -10 -9 -29 -34 -43 -56 -13 -23
-38 -55 -56 -73 -18 -17 -45 -46 -60 -64 -122 -148 -107 -132 -437 -465 -138
-139 -264 -259 -281 -268 -16 -9 -30 -20 -30 -26 0 -14 -64 -74 -112 -105 -20
-13 -39 -32 -42 -42 -4 -10 -18 -24 -33 -31 -14 -7 -53 -36 -87 -65 -34 -29
-95 -78 -136 -109 -41 -31 -90 -71 -107 -87 -18 -17 -37 -30 -43 -30 -6 0 -38
-21 -71 -47 -62 -49 -139 -152 -139 -186 0 -11 18 -37 40 -59 34 -34 43 -39
70 -33 38 8 158 82 232 143 51 41 170 137 383 307 34 28 80 64 101 80 150 116
640 609 807 813 62 75 109 131 153 181 72 81 350 434 384 486 8 13 38 56 65
95 28 39 66 95 85 124 19 30 53 80 76 112 88 126 145 216 264 413 104 174 356
682 457 921 16 39 21 51 57 133 14 32 26 63 26 70 0 7 4 17 9 23 5 5 16 34 26
64 10 30 31 83 46 117 15 34 36 86 45 115 9 29 21 58 26 64 5 7 22 53 38 104
17 51 35 100 40 110 5 10 23 69 39 131 17 63 44 161 61 219 17 58 38 132 46
165 8 33 22 83 29 110 23 80 74 308 98 435 3 14 12 50 20 80 21 76 30 131 45
290 5 52 8 98 5 103 -2 4 0 7 5 7 6 0 10 10 11 23 0 12 2 43 4 69 1 26 0 45
-4 42 -4 -2 -10 0 -14 6 -3 6 1 13 10 16 14 6 14 8 -2 21 -17 14 -17 14 0 9
12 -4 16 -2 11 5 -3 6 -6 54 -5 108 4 160 6 200 14 207 4 4 1 14 -6 22 -10 13
-9 15 10 10 21 -6 22 -3 19 36 -2 22 -7 53 -11 69 -5 18 -3 27 4 27 6 0 16 11
21 25 5 14 15 25 21 25 6 0 9 9 6 20 -3 11 -2 20 3 20 15 0 17 84 3 114 -11
22 -20 27 -38 23 -14 -2 -26 1 -28 7 -3 8 -9 7 -19 -2 -13 -10 -17 -10 -20 0
-3 9 -6 9 -12 0z m84 -72 c0 -5 -5 -10 -11 -10 -5 0 -7 5 -4 10 3 6 8 10 11
10 2 0 4 -4 4 -10z m3 -80 c-3 -12 -8 -19 -11 -16 -5 6 5 36 12 36 2 0 2 -9
-1 -20z m-18 -30 c3 -5 1 -10 -4 -10 -6 0 -11 5 -11 10 0 6 2 10 4 10 3 0 8
-4 11 -10z m-18 -162 c-3 -7 -5 -2 -5 12 0 14 2 19 5 13 2 -7 2 -19 0 -25z"/>
<path d="M22241 26584 c0 -11 3 -14 6 -6 3 7 2 16 -1 19 -3 4 -6 -2 -5 -13z"/>
<path d="M22170 26540 c-9 -6 -10 -10 -3 -10 6 0 15 5 18 10 8 12 4 12 -15 0z"/>
<path d="M22127 26497 c-3 -8 1 -14 9 -14 7 0 15 6 18 14 3 7 -1 13 -8 13 -8
0 -16 -6 -19 -13z"/>
<path d="M22637 26463 c-4 -3 -7 -11 -7 -17 0 -6 5 -5 12 2 6 6 9 14 7 17 -3
3 -9 2 -12 -2z"/>
<path d="M22835 26440 c-3 -5 -1 -10 4 -10 6 0 11 5 11 10 0 6 -2 10 -4 10 -3
0 -8 -4 -11 -10z"/>
<path d="M22366 26383 c-6 -14 -5 -15 5 -6 7 7 10 15 7 18 -3 3 -9 -2 -12 -12z"/>
<path d="M22690 26390 c0 -5 7 -6 17 -3 12 5 14 3 8 -7 -5 -9 -4 -11 3 -6 19
11 14 26 -8 26 -11 0 -20 -4 -20 -10z"/>
<path d="M22876 26353 c-6 -14 -5 -15 5 -6 7 7 10 15 7 18 -3 3 -9 -2 -12 -12z"/>
<path d="M22840 26349 c0 -5 5 -7 10 -4 6 3 10 8 10 11 0 2 -4 4 -10 4 -5 0
-10 -5 -10 -11z"/>
<path d="M22296 26337 c3 -10 9 -15 12 -12 3 3 0 11 -7 18 -10 9 -11 8 -5 -6z"/>
<path d="M22807 26343 c-11 -10 -8 -43 4 -43 5 0 8 4 4 9 -3 5 -1 12 5 16 5 3
10 10 10 16 0 10 -14 12 -23 2z"/>
<path d="M22402 26310 c-15 -24 -15 -30 -2 -30 6 0 10 7 10 16 0 10 6 14 15
10 9 -3 15 0 15 9 0 22 -23 18 -38 -5z"/>
<path d="M22365 26310 c3 -5 0 -10 -7 -10 -10 0 -9 -3 2 -10 9 -6 17 -5 22 3
8 13 1 27 -13 27 -6 0 -7 -4 -4 -10z"/>
<path d="M22750 26310 c0 -5 5 -10 10 -10 6 0 10 5 10 10 0 6 -4 10 -10 10 -5
0 -10 -4 -10 -10z"/>
<path d="M22210 26301 c0 -7 -6 -11 -15 -7 -17 6 -19 -2 -6 -22 6 -11 10 -10
15 4 6 16 8 16 16 4 6 -8 10 -10 10 -5 0 6 -5 17 -10 25 -7 12 -10 12 -10 1z"/>
<path d="M22875 26302 c-5 -4 -12 -16 -13 -27 -4 -23 0 -20 17 13 12 24 12 26
-4 14z"/>
<path d="M22948 26273 c7 -3 16 -2 19 1 4 3 -2 6 -13 5 -11 0 -14 -3 -6 -6z"/>
<path d="M22885 26250 c-4 -6 -11 -7 -17 -4 -7 4 -8 2 -4 -5 4 -6 11 -9 16 -6
4 3 10 0 12 -7 3 -8 7 -6 11 5 7 18 -8 33 -18 17z"/>
<path d="M22947 26253 c-4 -3 -7 -11 -7 -17 0 -6 5 -5 12 2 6 6 9 14 7 17 -3
3 -9 2 -12 -2z"/>
<path d="M22196 26241 c-4 -5 2 -15 13 -20 16 -9 19 -8 17 6 -3 20 -21 28 -30
14z"/>
<path d="M22900 26160 c0 -5 5 -10 10 -10 6 0 10 5 10 10 0 6 -4 10 -10 10 -5
0 -10 -4 -10 -10z"/>
<path d="M22940 26119 c0 -5 5 -7 10 -4 6 3 10 8 10 11 0 2 -4 4 -10 4 -5 0
-10 -5 -10 -11z"/>
<path d="M22980 26028 c0 -19 2 -20 10 -8 13 19 13 30 0 30 -5 0 -10 -10 -10
-22z"/>
<path d="M23094 26038 c-4 -7 -4 -10 1 -6 4 4 15 2 24 -5 14 -11 14 -10 2 6
-16 20 -18 21 -27 5z"/>
<path d="M23200 26038 c-13 -8 -12 -9 2 -5 9 3 19 1 21 -6 2 -7 7 -9 11 -6 13
12 -19 28 -34 17z"/>
<path d="M23210 25990 c0 -5 5 -10 10 -10 6 0 10 5 10 10 0 6 -4 10 -10 10 -5
0 -10 -4 -10 -10z"/>
<path d="M23126 25966 c3 -9 11 -16 16 -16 13 0 5 23 -10 28 -7 2 -10 -2 -6
-12z"/>
<path d="M23230 25954 c0 -8 5 -12 10 -9 6 4 8 11 5 16 -9 14 -15 11 -15 -7z"/>
<path d="M23127 25920 c-3 -12 0 -20 8 -20 8 0 11 8 8 20 -3 11 -7 20 -8 20
-1 0 -5 -9 -8 -20z"/>
<path d="M23315 25910 c-4 -6 -11 -8 -16 -5 -5 4 -9 2 -9 -4 0 -6 9 -15 19
-20 16 -9 19 -7 17 14 -1 28 -2 29 -11 15z"/>
<path d="M23252 25888 c-18 -18 -15 -25 15 -31 25 -5 26 -4 9 8 -10 8 -15 18
-11 24 8 15 2 14 -13 -1z"/>
<path d="M23227 25838 c-5 -17 31 -48 57 -48 17 0 18 -2 6 -10 -26 -17 1 -11
31 7 31 19 35 29 18 53 -9 13 -10 13 -6 -2 5 -15 -17 -59 -25 -48 -2 3 -8 14
-14 25 -7 13 -19 19 -34 17 -14 -2 -20 0 -16 7 4 6 3 11 -3 11 -5 0 -11 -6
-14 -12z m53 -28 c0 -5 -5 -10 -11 -10 -5 0 -7 5 -4 10 3 6 8 10 11 10 2 0 4
-4 4 -10z"/>
<path d="M23252 25768 c-15 -15 -15 -28 0 -28 6 0 8 3 5 7 -4 3 -2 12 4 20 14
16 7 17 -9 1z"/>
<path d="M23465 25612 c-4 -20 -11 -43 -17 -49 -13 -16 2 -16 22 0 16 13 24
73 11 82 -5 2 -12 -12 -16 -33z"/>
<path d="M23524 25616 c-20 -11 -22 -36 -3 -36 6 0 7 5 3 12 -4 6 -3 8 2 5 6
-3 15 3 22 14 14 21 7 23 -24 5z"/>
<path d="M23300 25606 c0 -17 28 -41 38 -32 4 4 -1 12 -11 17 -9 6 -15 14 -12
20 4 5 1 9 -4 9 -6 0 -11 -6 -11 -14z"/>
<path d="M23615 25610 c3 -5 8 -10 11 -10 2 0 4 5 4 10 0 6 -5 10 -11 10 -5 0
-7 -4 -4 -10z"/>
<path d="M23520 25570 c-12 -7 -12 -12 -2 -22 9 -9 12 -9 12 5 0 10 5 14 15
11 8 -4 15 -1 15 5 0 13 -20 14 -40 1z"/>
<path d="M23586 25532 c-2 -4 4 -9 15 -9 11 -1 17 2 14 8 -7 11 -22 12 -29 1z"/>
<path d="M23665 25529 c-4 -6 -5 -12 -2 -15 2 -3 7 2 10 11 7 17 1 20 -8 4z"/>
<path d="M23607 25492 c-10 -10 -14 -22 -11 -25 4 -4 1 -13 -6 -22 -11 -13
-10 -14 5 -8 14 5 17 3 12 -9 -7 -19 19 -33 29 -16 4 7 2 14 -4 16 -7 2 -10 8
-6 13 3 5 1 9 -5 9 -7 0 -7 8 0 26 12 34 7 39 -14 16z"/>
<path d="M23640 25464 c0 -3 7 -12 15 -21 8 -8 12 -20 8 -26 -4 -7 -8 -23 -9
-36 -1 -20 1 -22 10 -9 6 8 18 13 26 10 11 -4 11 0 -3 15 -18 20 -17 21 12 34
33 15 42 36 15 36 -9 0 -19 -9 -22 -19 -2 -10 -9 -18 -14 -18 -5 0 -7 4 -4 8
2 4 -4 13 -15 20 -10 7 -19 10 -19 6z"/>
<path d="M23723 25428 c-27 -13 -28 -21 -9 -37 12 -10 13 -8 9 10 -4 14 -2 20
4 16 6 -4 13 0 17 8 3 8 4 15 3 14 -1 0 -12 -5 -24 -11z"/>
<path d="M23756 25412 c-2 -4 -1 -14 5 -22 7 -12 9 -10 9 8 0 23 -5 28 -14 14z"/>
<path d="M23685 25351 c-3 -5 -1 -12 5 -16 5 -3 10 1 10 9 0 18 -6 21 -15 7z"/>
<path d="M23717 25321 c-3 -14 0 -21 9 -21 16 0 18 9 5 28 -6 10 -10 9 -14 -7z"/>
<path d="M23585 25310 c-3 -5 -1 -10 4 -10 6 0 11 5 11 10 0 6 -2 10 -4 10 -3
0 -8 -4 -11 -10z"/>
<path d="M23756 25285 c4 -10 0 -15 -12 -15 -14 0 -15 -3 -6 -8 13 -9 7 -42
-8 -42 -4 0 -10 -6 -13 -14 -5 -12 3 -14 48 -7 6 1 3 6 -5 11 -13 8 -13 10 2
10 9 0 20 5 24 12 5 8 2 9 -9 5 -12 -5 -17 -1 -17 13 0 12 7 20 18 20 13 0 14
2 3 9 -11 7 -11 9 0 14 8 3 5 6 -8 6 -16 1 -21 -3 -17 -14z"/>
<path d="M23676 25250 c-11 -3 -15 -9 -10 -13 10 -6 42 9 34 16 -3 3 -14 1
-24 -3z"/>
<path d="M23800 25251 c0 -6 4 -13 10 -16 6 -3 7 1 4 9 -7 18 -14 21 -14 7z"/>
<path d="M23830 25213 c0 -4 5 -15 10 -23 8 -13 10 -13 10 2 0 9 -4 20 -10 23
-5 3 -10 3 -10 -2z"/>
<path d="M23780 25198 c0 -11 -5 -15 -15 -12 -11 5 -13 2 -8 -12 5 -13 3 -15
-7 -9 -8 5 -11 4 -7 -2 4 -6 18 -10 33 -10 19 0 22 2 13 8 -11 7 -11 11 -2 17
8 5 9 13 3 22 -8 13 -10 12 -10 -2z"/>
<path d="M23845 25120 c-3 -5 -2 -10 4 -10 5 0 13 5 16 10 3 6 2 10 -4 10 -5
0 -13 -4 -16 -10z"/>
<path d="M23836 25085 c4 -8 13 -15 21 -15 13 0 13 3 3 15 -7 8 -16 15 -21 15
-5 0 -6 -7 -3 -15z"/>
<path d="M23802 25040 c-16 -26 -15 -30 3 -30 9 0 18 -7 21 -15 4 -8 14 -15
23 -15 13 1 12 4 -6 19 -15 12 -20 25 -16 40 7 27 -8 27 -25 1z"/>
<path d="M23880 25039 c0 -5 5 -7 10 -4 6 3 10 8 10 11 0 2 -4 4 -10 4 -5 0
-10 -5 -10 -11z"/>
<path d="M23780 24990 c0 -10 33 -30 50 -30 8 0 7 4 -2 13 -18 18 -48 28 -48
17z"/>
<path d="M23866 24957 c3 -10 9 -15 12 -12 3 3 0 11 -7 18 -10 9 -11 8 -5 -6z"/>
<path d="M23906 24931 c-4 -5 4 -7 16 -3 16 4 19 2 13 -8 -5 -9 -4 -11 4 -6 6
4 9 12 6 17 -8 12 -32 12 -39 0z"/>
<path d="M23999 24938 c-5 -17 -4 -48 3 -48 4 0 7 11 6 25 -2 21 -6 31 -9 23z"/>
<path d="M24031 24904 c0 -11 3 -14 6 -6 3 7 2 16 -1 19 -3 4 -6 -2 -5 -13z"/>
<path d="M24231 24904 c0 -11 3 -14 6 -6 3 7 2 16 -1 19 -3 4 -6 -2 -5 -13z"/>
<path d="M23919 24881 c7 -5 10 -14 7 -20 -4 -6 -5 -11 -2 -11 3 0 10 8 15 18
8 14 5 18 -12 19 -16 2 -18 0 -8 -6z"/>
<path d="M24010 24860 c0 -5 5 -10 10 -10 6 0 10 5 10 10 0 6 -4 10 -10 10 -5
0 -10 -4 -10 -10z"/>
<path d="M24112 24855 c-11 -12 -10 -15 3 -15 8 0 15 7 15 15 0 18 -2 18 -18
0z"/>
<path d="M24410 24860 c-9 -6 -10 -10 -3 -10 6 0 15 5 18 10 8 12 4 12 -15 0z"/>
<path d="M24150 24850 c0 -5 5 -10 10 -10 6 0 10 5 10 10 0 6 -4 10 -10 10 -5
0 -10 -4 -10 -10z"/>
<path d="M24050 24830 c0 -5 5 -10 11 -10 5 0 7 5 4 10 -3 6 -8 10 -11 10 -2
0 -4 -4 -4 -10z"/>
<path d="M24081 24790 c-14 -12 -18 -20 -10 -20 8 0 20 9 27 20 15 25 13 25
-17 0z"/>
<path d="M24306 24764 c-4 -9 -4 -19 -1 -22 3 -3 5 0 5 7 0 7 4 9 10 6 6 -3 7
1 4 9 -8 20 -10 20 -18 0z"/>
<path d="M24240 24741 c0 -6 -12 -11 -26 -11 -14 0 -23 -4 -19 -10 3 -5 13 -6
22 -3 11 4 14 3 9 -6 -4 -6 -4 -11 1 -10 21 4 33 -2 33 -16 0 -8 5 -15 10 -15
17 0 11 18 -12 35 -18 12 -20 17 -9 24 9 6 10 11 2 15 -6 4 -11 2 -11 -3z"/>
<path d="M24330 24726 c0 -2 7 -9 15 -16 13 -11 14 -10 9 4 -5 14 -24 23 -24
12z"/>
<path d="M24526 24653 c-6 -14 -5 -15 5 -6 7 7 10 15 7 18 -3 3 -9 -2 -12 -12z"/>
<path d="M24590 24660 c0 -5 -6 -7 -14 -4 -8 3 -20 -4 -28 -15 -8 -12 -19 -18
-24 -13 -5 4 -1 -2 9 -14 9 -11 14 -24 10 -27 -3 -4 -1 -7 5 -7 7 0 12 8 13
18 0 16 1 16 7 0 5 -13 11 -15 22 -8 11 7 11 10 2 10 -7 0 -12 8 -10 18 2 9
-3 16 -9 15 -7 -2 -13 2 -13 8 0 6 8 8 19 4 12 -3 21 0 25 10 3 8 1 15 -4 15
-6 0 -10 -4 -10 -10z"/>
<path d="M24426 24645 c-3 -8 -1 -17 3 -20 5 -3 11 2 15 10 3 8 1 17 -3 20 -5
3 -11 -2 -15 -10z"/>
<path d="M24487 24569 c4 -13 8 -18 11 -10 2 7 -1 18 -6 23 -8 8 -9 4 -5 -13z"/>
<path d="M6440 11750 c-52 -4 -113 -12 -135 -18 -22 -6 -71 -13 -110 -17 -110
-10 -186 -25 -224 -45 -20 -10 -67 -24 -106 -30 -38 -7 -82 -20 -97 -31 -15
-10 -49 -26 -75 -35 -26 -8 -57 -26 -68 -38 -11 -13 -37 -29 -58 -36 -21 -7
-53 -25 -70 -40 -18 -15 -42 -30 -55 -34 -12 -4 -27 -16 -32 -26 -6 -11 -30
-28 -54 -39 -24 -10 -54 -33 -67 -50 -12 -17 -31 -34 -42 -37 -21 -7 -177
-160 -177 -174 0 -5 -18 -23 -39 -41 -22 -17 -45 -45 -52 -63 -7 -17 -25 -46
-41 -64 -15 -18 -28 -39 -28 -47 0 -8 -9 -20 -20 -28 -11 -7 -31 -39 -45 -70
-13 -31 -33 -65 -44 -76 -10 -10 -22 -34 -26 -52 -9 -46 -26 -89 -35 -89 -11
0 -20 -26 -36 -115 -9 -44 -24 -94 -35 -112 -14 -22 -22 -63 -29 -140 -5 -59
-15 -162 -21 -228 -10 -103 -9 -156 9 -371 18 -230 22 -255 45 -295 14 -24 28
-66 32 -94 4 -27 20 -75 35 -105 16 -30 35 -70 41 -89 7 -18 22 -45 34 -60 12
-14 26 -37 30 -51 4 -14 19 -38 32 -54 13 -16 32 -45 42 -65 11 -20 28 -45 40
-55 12 -11 21 -24 21 -31 0 -6 17 -29 38 -52 20 -22 55 -61 77 -87 68 -79 126
-136 139 -136 7 0 18 -10 25 -22 12 -22 68 -68 115 -95 23 -13 38 -24 141
-100 38 -29 75 -53 81 -53 6 0 69 -29 140 -65 99 -51 145 -68 198 -75 38 -6
112 -19 165 -29 168 -33 252 -41 421 -41 178 0 352 16 532 49 173 32 192 38
254 76 33 19 64 35 69 35 6 0 32 11 59 25 27 14 57 25 65 25 9 0 39 16 66 35
28 19 69 49 93 65 24 17 59 37 78 45 19 8 34 19 34 24 0 6 5 11 11 11 10 0
120 95 169 145 8 9 45 46 82 83 36 37 73 84 82 104 8 21 26 43 40 50 15 6 26
19 26 29 0 10 13 33 29 51 15 18 38 53 49 78 11 25 30 54 41 64 12 11 21 29
21 41 0 32 28 95 45 101 16 7 24 24 36 89 5 27 20 65 34 85 18 27 26 58 34
133 7 63 19 113 33 140 17 33 23 70 30 182 9 148 -3 417 -20 438 -19 25 -32
82 -43 190 -9 91 -15 116 -33 138 -13 15 -29 55 -36 89 -10 47 -18 64 -36 72
-15 7 -27 27 -38 67 -10 34 -26 66 -41 79 -14 12 -25 28 -25 35 0 8 -18 39
-40 70 -22 30 -40 60 -40 66 0 5 -10 17 -22 26 -22 14 -40 37 -104 128 -15 20
-33 37 -41 37 -8 0 -22 14 -31 30 -9 17 -27 33 -40 36 -12 4 -31 19 -42 35
-11 15 -29 30 -39 34 -10 3 -24 16 -31 30 -7 13 -25 29 -39 35 -39 16 -69 35
-95 59 -12 11 -28 21 -34 21 -7 0 -24 14 -39 30 -14 17 -33 30 -40 30 -18 0
-72 28 -98 50 -11 9 -47 27 -80 40 -33 13 -69 29 -80 36 -11 7 -56 20 -100 28
-44 8 -102 23 -130 34 -27 12 -99 28 -160 36 -60 8 -132 20 -160 25 -80 14
-232 20 -335 11z m395 -740 c28 -5 64 -16 80 -24 17 -8 48 -22 70 -31 45 -20
52 -24 114 -60 24 -14 49 -25 56 -25 8 0 26 -13 42 -30 15 -16 33 -30 40 -30
6 0 38 -27 70 -60 32 -33 64 -60 70 -60 7 0 25 -19 39 -42 15 -24 38 -51 51
-61 12 -10 23 -24 23 -31 0 -7 13 -29 28 -49 16 -20 37 -57 47 -83 10 -26 26
-55 36 -65 19 -19 49 -107 49 -143 0 -12 6 -33 14 -48 61 -116 70 -489 15
-616 -12 -26 -28 -78 -36 -117 -9 -43 -23 -80 -37 -95 -13 -14 -33 -51 -46
-82 -12 -32 -26 -58 -31 -58 -4 0 -17 -20 -28 -45 -11 -25 -32 -56 -47 -70
-15 -14 -32 -35 -38 -48 -7 -12 -24 -28 -39 -35 -15 -7 -34 -26 -42 -43 -9
-16 -19 -29 -24 -29 -8 0 -34 -20 -108 -80 -28 -23 -111 -68 -135 -74 -15 -3
-42 -19 -60 -35 -20 -16 -56 -33 -88 -41 -30 -7 -66 -20 -80 -29 -21 -14 -59
-16 -255 -16 -211 0 -234 2 -285 21 -30 12 -81 28 -113 35 -38 8 -65 20 -76
35 -10 13 -44 31 -75 41 -32 10 -58 25 -61 35 -3 9 -19 21 -35 26 -16 6 -36
22 -45 36 -10 14 -22 26 -28 26 -14 0 -99 79 -117 109 -15 27 -41 57 -96 114
-18 18 -34 48 -38 70 -4 23 -20 50 -41 72 -24 23 -37 47 -41 75 -4 23 -17 54
-29 68 -30 37 -34 55 -47 247 -14 207 -14 215 0 390 11 146 19 178 52 225 11
16 20 36 20 47 0 35 26 92 53 117 14 13 29 37 33 53 4 15 22 46 41 67 18 22
33 45 33 53 0 7 11 20 26 29 14 9 32 30 40 46 8 16 26 33 40 38 13 5 29 21 34
34 5 14 23 32 39 41 17 8 34 21 38 29 4 8 62 39 128 70 66 31 133 63 148 71
16 8 37 15 46 15 10 0 21 3 25 8 28 28 459 38 581 12z"/>
<path d="M14390 11735 c-41 -7 -129 -18 -195 -25 -76 -8 -134 -20 -157 -31
-21 -11 -71 -26 -112 -34 -42 -7 -101 -28 -133 -44 -32 -17 -62 -31 -68 -31
-5 0 -36 -18 -69 -40 -32 -22 -62 -40 -67 -40 -22 0 -173 -108 -234 -167 -19
-18 -37 -33 -41 -33 -10 0 -166 -141 -178 -160 -5 -8 -21 -27 -35 -41 -40 -40
-101 -121 -101 -134 0 -6 -14 -27 -31 -46 -17 -19 -43 -59 -58 -89 -15 -30
-51 -100 -79 -154 -29 -55 -52 -106 -52 -115 0 -9 -12 -41 -26 -71 -15 -30
-31 -71 -36 -90 -5 -19 -13 -51 -19 -70 -17 -64 -39 -272 -46 -430 -4 -113 -1
-199 11 -315 21 -198 41 -285 85 -373 10 -20 26 -60 35 -89 10 -28 25 -62 35
-75 9 -13 23 -39 31 -58 7 -19 21 -44 31 -55 9 -11 24 -37 33 -59 9 -21 29
-54 46 -72 16 -19 30 -39 30 -44 0 -5 10 -19 23 -32 12 -13 40 -46 62 -73 90
-114 302 -312 371 -348 16 -8 38 -24 48 -36 11 -12 24 -21 31 -21 6 0 36 -18
65 -40 29 -22 58 -40 62 -40 5 0 74 -31 153 -70 79 -38 157 -70 172 -70 16 0
87 -11 158 -24 196 -36 358 -50 493 -42 206 12 324 24 437 45 61 12 122 21
137 21 28 0 79 22 198 85 36 19 89 41 117 50 29 9 71 32 94 51 22 19 49 34 58
34 10 0 26 9 36 20 9 10 36 29 59 41 22 11 54 34 69 50 16 15 37 31 46 34 10
3 23 17 29 30 6 14 16 25 22 25 13 0 120 108 120 120 0 5 14 16 30 25 17 9 30
21 30 28 0 6 20 39 45 72 25 33 45 63 45 67 0 4 14 21 30 38 17 17 30 38 30
47 0 8 16 33 35 54 19 22 35 48 35 58 0 10 14 45 31 77 17 33 38 90 45 127 8
44 22 79 39 98 18 22 25 42 25 71 0 60 20 171 35 188 36 45 40 81 39 346 -2
256 -2 261 -27 310 -25 49 -47 158 -47 232 0 23 -7 46 -19 58 -28 31 -38 54
-46 107 -4 26 -18 63 -31 82 -13 19 -29 54 -35 77 -7 24 -25 57 -39 73 -15 17
-33 46 -39 66 -6 19 -25 45 -41 58 -17 12 -30 28 -30 37 0 8 -11 26 -24 39
-14 14 -32 38 -42 54 -10 16 -28 35 -41 42 -12 7 -25 20 -28 30 -3 9 -29 38
-58 64 -29 26 -65 59 -82 74 -16 16 -38 31 -48 34 -9 4 -22 18 -28 31 -7 14
-25 29 -40 35 -16 5 -49 25 -73 43 -48 36 -78 55 -176 109 -153 86 -228 119
-305 134 -44 9 -91 23 -104 32 -14 9 -84 23 -165 34 -77 10 -161 23 -186 28
-64 14 -311 12 -400 -4z m366 -719 c73 -8 148 -21 168 -30 20 -9 51 -23 70
-31 19 -8 37 -15 41 -15 3 0 32 -13 65 -29 32 -16 69 -32 82 -36 50 -16 187
-129 261 -217 141 -168 218 -325 269 -553 28 -121 32 -158 31 -275 0 -136 -24
-278 -68 -407 -24 -69 -127 -274 -141 -280 -7 -2 -24 -22 -39 -44 -42 -64
-130 -156 -207 -217 -94 -73 -105 -81 -149 -98 -24 -10 -58 -30 -76 -45 -18
-15 -50 -30 -75 -34 -24 -4 -60 -16 -80 -26 -20 -11 -68 -23 -105 -29 -140
-20 -401 -6 -468 25 -16 7 -61 21 -99 31 -42 10 -81 28 -100 44 -17 15 -43 30
-57 33 -14 4 -41 18 -60 32 -19 13 -48 32 -66 40 -17 8 -34 24 -38 34 -3 11
-16 23 -27 27 -25 8 -125 110 -133 135 -3 9 -14 19 -25 22 -10 2 -28 23 -39
45 -11 22 -26 44 -32 48 -6 3 -22 31 -35 61 -13 30 -33 66 -44 81 -11 15 -24
52 -30 82 -6 34 -23 73 -43 100 l-32 45 0 296 0 296 28 36 c17 23 32 59 39 95
5 31 25 89 44 129 19 39 34 77 34 83 0 7 14 28 30 47 17 18 30 40 30 47 0 7
14 26 30 42 17 16 41 43 53 60 30 42 205 193 242 208 17 7 59 27 95 43 165 77
222 92 410 106 93 7 118 6 246 -7z"/>
<path d="M21985 11740 c-27 -4 -115 -15 -195 -25 -91 -11 -167 -26 -205 -41
-33 -12 -87 -28 -121 -34 -33 -5 -92 -26 -130 -45 -38 -19 -76 -35 -83 -35 -8
0 -26 -11 -40 -24 -15 -13 -47 -31 -73 -41 -26 -9 -55 -26 -65 -37 -10 -11
-31 -26 -48 -34 -70 -33 -295 -233 -380 -338 -61 -76 -115 -152 -137 -193 -12
-24 -26 -43 -30 -43 -9 0 -58 -75 -58 -90 0 -6 -11 -27 -24 -48 -14 -20 -30
-57 -37 -82 -7 -25 -20 -56 -29 -70 -23 -34 -38 -77 -46 -130 -3 -25 -17 -64
-31 -87 -37 -63 -43 -136 -43 -503 0 -366 5 -430 43 -505 14 -27 28 -72 32
-100 7 -58 21 -99 45 -135 9 -14 27 -53 40 -88 12 -34 26 -65 31 -68 5 -2 17
-24 28 -48 10 -25 33 -59 50 -77 17 -17 31 -38 31 -45 0 -6 15 -30 33 -53 17
-22 48 -61 67 -86 47 -62 143 -158 224 -225 37 -30 75 -62 84 -70 23 -20 187
-120 197 -120 4 0 15 -9 25 -20 9 -10 77 -45 151 -76 74 -31 139 -60 144 -64
19 -16 100 -38 155 -43 30 -3 132 -15 225 -27 135 -17 203 -21 330 -17 232 6
582 50 620 78 6 4 42 19 80 34 39 15 79 30 90 35 11 4 37 15 58 24 21 9 45 16
55 16 18 0 76 32 99 56 8 8 21 14 28 14 7 0 26 11 42 24 15 13 48 34 73 46 25
13 50 31 57 40 7 10 25 23 41 29 16 7 35 23 42 36 7 14 21 27 30 30 9 3 49 39
88 80 39 41 76 75 81 75 5 0 12 8 15 18 4 10 14 27 24 38 27 29 84 113 111
164 13 25 30 49 38 53 12 8 63 105 63 122 0 4 8 19 19 33 38 55 127 349 173
572 18 87 17 470 -1 565 -34 183 -44 227 -76 325 -36 112 -142 336 -181 383
-13 15 -30 42 -39 60 -8 18 -35 57 -60 87 -25 30 -56 72 -70 93 -14 20 -29 37
-33 37 -5 0 -36 26 -70 58 -33 33 -73 67 -89 77 -15 10 -32 24 -36 31 -4 8
-29 26 -55 41 -26 15 -61 38 -79 52 -75 60 -95 73 -145 93 -29 12 -56 27 -60
34 -4 6 -34 22 -65 34 -59 22 -111 44 -148 60 -11 5 -56 16 -99 25 -44 8 -93
22 -110 31 -17 8 -96 24 -176 34 -80 11 -176 24 -215 29 -79 12 -206 12 -280
1z m345 -721 c47 -6 94 -15 105 -19 11 -5 45 -19 75 -33 30 -13 71 -30 90 -37
19 -7 42 -18 50 -25 8 -6 34 -19 57 -30 23 -10 50 -27 60 -37 10 -11 32 -26
49 -33 18 -7 37 -22 43 -34 6 -11 36 -36 66 -57 30 -20 65 -50 77 -67 12 -18
37 -46 55 -63 18 -17 33 -38 33 -46 0 -8 16 -35 35 -59 19 -24 37 -56 40 -70
3 -15 14 -35 24 -45 22 -24 28 -41 45 -125 8 -37 25 -82 38 -99 22 -31 23 -39
26 -277 l3 -244 -35 -72 c-19 -40 -37 -93 -41 -119 -3 -28 -16 -60 -29 -76
-13 -15 -29 -45 -34 -66 -6 -22 -22 -51 -35 -65 -14 -14 -30 -42 -36 -61 -6
-19 -29 -52 -51 -74 -22 -21 -40 -43 -40 -48 0 -11 -25 -38 -35 -38 -4 0 -37
-26 -73 -58 -87 -76 -191 -152 -207 -152 -7 0 -37 -16 -66 -36 -30 -20 -76
-43 -104 -51 -27 -8 -59 -21 -70 -28 -32 -20 -152 -35 -282 -35 -130 0 -291
16 -308 30 -6 5 -42 18 -80 28 -96 27 -117 36 -139 61 -11 11 -25 21 -31 21
-16 0 -154 91 -193 127 -16 15 -36 33 -43 40 -8 6 -32 32 -54 58 -22 25 -50
56 -61 69 -24 25 -124 183 -124 195 0 4 -11 18 -24 30 -13 12 -29 43 -36 69
-7 26 -25 73 -41 104 -27 51 -31 73 -40 202 -8 101 -8 194 -1 305 10 145 13
164 40 217 16 33 33 79 37 103 4 24 16 52 26 62 11 11 31 43 44 72 59 124 111
194 225 304 83 78 119 105 197 144 34 16 67 37 74 45 6 8 16 14 22 14 6 0 40
14 76 32 36 18 97 37 136 44 91 15 357 17 465 3z"/>
<path d="M26425 11740 c-27 -5 -95 -13 -150 -19 -161 -19 -210 -28 -258 -50
-25 -12 -53 -21 -63 -21 -37 0 -140 -33 -160 -51 -11 -10 -26 -19 -33 -19 -16
0 -71 -28 -96 -50 -11 -9 -42 -25 -68 -34 -27 -10 -60 -29 -74 -42 -14 -13
-29 -24 -34 -24 -4 0 -22 -12 -39 -27 -18 -15 -45 -34 -61 -42 -23 -13 -90
-72 -204 -179 -11 -10 -36 -38 -55 -63 -19 -24 -54 -64 -77 -88 -24 -24 -43
-52 -43 -62 0 -10 -13 -28 -30 -41 -16 -12 -30 -27 -30 -33 0 -7 -14 -31 -31
-55 -17 -24 -38 -62 -46 -86 -8 -23 -25 -49 -37 -58 -15 -9 -26 -29 -30 -53
-4 -21 -20 -63 -35 -93 -16 -30 -35 -82 -42 -115 -7 -33 -22 -72 -32 -87 -42
-57 -63 -523 -38 -833 11 -131 17 -169 37 -210 13 -27 30 -79 38 -114 9 -36
23 -76 33 -90 10 -15 26 -51 36 -82 9 -31 26 -64 37 -74 12 -10 29 -39 40 -63
11 -24 31 -57 45 -74 14 -16 25 -36 25 -43 0 -8 14 -23 30 -35 17 -12 30 -28
30 -36 0 -8 12 -27 27 -42 15 -15 52 -54 81 -87 30 -33 77 -79 106 -103 70
-59 105 -89 145 -123 18 -16 39 -29 46 -29 6 0 30 -13 52 -29 22 -16 55 -37
73 -46 19 -10 41 -25 49 -35 9 -10 42 -27 74 -39 31 -11 80 -32 107 -46 27
-14 55 -25 62 -25 8 0 29 -11 48 -24 43 -29 91 -39 350 -72 186 -24 224 -26
415 -21 116 4 255 14 310 22 55 9 145 19 200 23 79 7 115 15 170 39 145 64
191 82 240 94 55 13 66 18 245 112 69 37 139 73 157 82 41 21 145 111 159 139
28 51 36 189 46 746 5 316 9 593 9 615 -1 48 -38 142 -60 151 -9 3 -99 10
-201 15 -102 5 -217 13 -255 18 -39 6 -256 10 -485 10 -490 0 -485 1 -534 -90
-28 -51 -30 -62 -34 -189 -3 -83 0 -155 8 -188 14 -62 44 -135 62 -149 32 -25
118 -33 350 -33 138 0 259 -5 281 -11 26 -7 45 -22 64 -50 14 -21 29 -39 34
-39 17 0 29 -80 29 -200 0 -104 -4 -132 -20 -165 -44 -89 -98 -144 -143 -145
-9 0 -31 -13 -47 -28 -22 -21 -50 -33 -105 -46 -42 -9 -89 -23 -104 -30 -91
-48 -639 -49 -715 -2 -11 8 -43 19 -71 25 -64 15 -105 31 -105 42 0 4 -29 22
-65 39 -35 17 -67 35 -70 40 -3 5 -20 16 -38 25 -18 9 -51 32 -73 53 -23 20
-50 44 -60 53 -44 37 -181 204 -189 230 -5 13 -16 32 -27 41 -20 17 -94 186
-121 278 -35 120 -47 342 -27 525 12 108 19 137 76 281 24 61 44 113 44 116 0
3 16 29 35 58 19 29 35 57 35 64 0 6 14 26 30 45 17 18 30 36 30 40 0 9 90
100 139 141 23 19 53 45 66 57 14 12 55 37 93 56 37 18 76 38 87 45 139 79
247 102 495 102 253 0 321 -15 555 -124 39 -18 84 -39 102 -46 18 -7 38 -19
44 -26 6 -8 26 -21 44 -30 18 -8 38 -26 45 -39 7 -14 18 -25 24 -25 6 0 38
-20 71 -45 50 -37 67 -45 104 -45 41 0 48 4 98 58 93 98 100 106 111 127 6 11
29 40 52 65 24 25 57 68 75 95 18 28 41 57 51 65 58 49 56 195 -4 214 -11 4
-31 20 -46 37 -16 17 -47 39 -69 49 -23 11 -49 28 -57 39 -8 12 -22 21 -31 21
-9 0 -36 16 -60 35 -24 19 -56 37 -70 40 -15 3 -41 17 -60 31 -18 13 -57 33
-86 44 -30 11 -71 29 -91 39 -20 10 -72 26 -114 35 -42 8 -94 23 -115 32 -21
9 -103 25 -183 35 -80 11 -167 23 -195 28 -59 11 -288 12 -360 1z"/>
<path d="M9049 11688 c-30 -6 -57 -21 -75 -39 -28 -29 -28 -30 -12 -62 9 -17
19 -42 23 -54 3 -12 18 -32 33 -45 36 -30 122 -146 122 -164 0 -7 11 -21 24
-30 14 -8 32 -35 42 -59 9 -24 25 -52 36 -61 10 -10 28 -36 38 -58 11 -23 40
-68 65 -101 25 -33 53 -73 62 -89 10 -16 30 -44 46 -61 15 -18 27 -36 27 -40
0 -3 20 -35 45 -69 25 -35 45 -68 45 -72 0 -5 11 -17 24 -27 13 -10 30 -32 36
-48 7 -16 16 -29 21 -29 5 0 18 -18 29 -39 11 -22 38 -60 60 -86 22 -25 40
-52 40 -59 0 -7 8 -21 18 -32 20 -21 82 -112 120 -175 13 -21 31 -41 41 -44
11 -3 24 -19 31 -35 6 -16 21 -37 31 -46 33 -29 69 -128 69 -186 0 -49 -35
-145 -65 -176 -13 -15 -40 -43 -59 -63 -19 -20 -46 -58 -61 -85 -44 -82 -73
-128 -88 -139 -8 -6 -21 -26 -29 -45 -8 -19 -28 -48 -45 -65 -16 -16 -35 -45
-43 -62 -7 -18 -16 -33 -20 -33 -5 0 -23 -26 -40 -57 -18 -32 -39 -62 -46 -66
-8 -4 -23 -26 -34 -47 -11 -22 -29 -44 -40 -50 -11 -6 -20 -18 -20 -26 0 -16
-38 -76 -52 -82 -4 -2 -17 -24 -27 -48 -11 -24 -27 -47 -36 -50 -9 -4 -23 -21
-32 -38 -9 -17 -31 -49 -49 -70 -19 -22 -34 -45 -34 -51 0 -6 -13 -24 -30 -40
-16 -16 -30 -37 -30 -48 0 -11 -15 -33 -34 -51 -18 -17 -41 -47 -51 -66 -10
-19 -26 -42 -35 -50 -9 -8 -24 -29 -33 -46 -9 -17 -27 -39 -41 -48 -15 -9 -26
-23 -26 -31 0 -8 -13 -27 -29 -42 -38 -36 -83 -125 -79 -154 2 -15 13 -25 31
-30 55 -15 678 -23 727 -10 75 20 97 33 116 70 11 19 31 48 47 63 15 16 27 37
27 47 0 11 14 32 30 48 17 15 30 33 30 38 0 6 18 32 39 58 22 26 43 58 47 70
4 12 19 36 34 54 16 17 31 42 35 55 4 13 21 38 36 56 16 18 29 39 29 48 0 8
13 29 30 47 37 40 120 167 120 183 0 7 11 21 24 32 14 10 32 42 42 71 9 28 25
56 35 62 11 5 30 31 44 57 23 42 39 67 90 140 9 12 24 22 35 22 10 0 22 5 25
10 3 6 17 10 30 10 25 0 125 -100 125 -126 0 -7 11 -20 23 -29 13 -8 30 -34
37 -56 8 -23 29 -60 47 -83 18 -22 33 -46 33 -52 0 -5 9 -19 19 -31 11 -11 29
-39 40 -61 12 -23 34 -56 49 -74 15 -18 35 -49 45 -68 18 -35 76 -123 97 -148
6 -7 18 -28 26 -47 7 -19 23 -39 34 -45 11 -6 31 -34 45 -64 14 -29 34 -61 45
-71 11 -10 20 -24 20 -31 0 -7 14 -29 30 -47 17 -19 30 -40 30 -46 0 -6 31
-42 69 -80 68 -68 70 -69 137 -76 77 -9 678 -8 708 1 28 9 18 105 -15 142 -14
15 -34 44 -45 65 -10 21 -26 43 -35 48 -9 4 -24 26 -32 47 -9 22 -23 42 -32
46 -9 3 -26 29 -39 58 -13 29 -33 62 -45 72 -11 11 -21 25 -21 33 0 8 -18 31
-40 53 -22 22 -40 45 -40 53 0 7 -16 32 -35 54 -19 23 -35 46 -35 52 0 6 -14
26 -30 45 -17 19 -35 48 -41 64 -6 17 -21 38 -35 46 -13 9 -33 34 -44 56 -11
21 -26 43 -34 47 -7 4 -21 22 -30 40 -9 17 -25 38 -35 45 -11 8 -26 33 -33 57
-8 27 -25 53 -45 68 -18 14 -33 31 -33 38 0 6 -9 20 -20 30 -11 10 -33 41 -49
69 -16 28 -38 60 -50 70 -11 11 -21 30 -21 42 0 14 -10 30 -26 41 -15 9 -35
37 -46 62 -11 25 -29 56 -40 68 -11 12 -26 33 -32 45 -6 13 -21 27 -33 33 -13
5 -27 23 -33 40 -6 16 -24 42 -40 57 -60 54 -33 143 74 248 20 19 36 40 36 46
0 6 12 24 26 39 15 16 33 43 40 59 7 17 27 44 43 59 17 16 31 38 31 49 0 11
16 35 35 52 19 18 35 40 35 50 0 9 10 27 23 40 13 13 34 45 46 72 13 27 32 55
42 62 11 7 26 29 34 49 8 19 28 51 45 69 16 19 30 39 30 43 0 5 15 28 34 50
19 23 38 50 41 61 3 10 14 22 25 25 10 3 28 27 40 53 12 26 33 60 46 75 13 16
24 34 24 41 0 7 9 21 21 32 12 10 30 36 40 57 11 20 29 43 40 50 11 6 30 30
41 52 11 22 31 53 44 68 13 16 24 36 24 46 0 9 14 30 31 47 17 16 40 47 51 68
11 22 28 47 39 55 10 9 21 36 24 62 10 68 -5 79 -113 80 -199 2 -530 -2 -572
-7 -78 -10 -137 -33 -156 -62 -9 -15 -23 -31 -30 -35 -8 -4 -23 -30 -35 -56
-11 -27 -32 -59 -45 -72 -13 -12 -24 -29 -24 -36 0 -8 -15 -30 -34 -49 -18
-19 -41 -55 -51 -79 -9 -25 -21 -45 -26 -45 -5 0 -18 -19 -30 -42 -12 -24 -35
-62 -50 -85 -16 -23 -29 -48 -29 -57 0 -8 -10 -23 -22 -33 -23 -18 -70 -88
-116 -173 -13 -24 -32 -50 -43 -58 -10 -7 -23 -31 -29 -53 -6 -22 -24 -54 -41
-71 -16 -17 -29 -35 -29 -41 0 -16 -102 -107 -120 -107 -19 0 -50 25 -50 40 0
5 -13 16 -29 25 -19 9 -32 26 -36 44 -3 17 -20 49 -37 72 -16 23 -34 54 -40
70 -5 15 -20 35 -34 44 -13 8 -31 32 -39 53 -9 20 -27 48 -40 62 -13 14 -27
37 -30 53 -4 15 -16 33 -26 41 -11 7 -31 37 -44 65 -14 28 -32 54 -39 57 -8 3
-22 24 -31 46 -9 23 -26 49 -39 59 -12 10 -28 36 -36 58 -7 22 -22 49 -32 58
-11 10 -26 33 -34 51 -7 19 -25 42 -38 53 -13 10 -31 36 -39 56 -22 52 -97
130 -133 138 -16 3 -60 15 -99 27 -63 20 -95 22 -320 24 -142 2 -270 -2 -296
-8z"/>
<path d="M17378 11689 c-46 -12 -87 -42 -100 -73 -10 -24 -12 -86 -8 -261 6
-293 6 -1833 0 -2635 -5 -574 -4 -617 13 -647 9 -18 27 -38 39 -44 17 -9 326
-12 1239 -11 1358 0 1255 -5 1277 71 8 24 12 128 12 288 l0 250 -26 27 c-15
14 -43 30 -63 36 -23 6 -320 10 -806 10 -859 0 -814 -4 -862 69 l-23 34 0
1386 c0 915 -4 1399 -10 1423 -9 32 -17 39 -63 56 -45 17 -87 20 -322 24 -149
2 -282 1 -297 -3z"/>
<path d="M35439 11683 c-32 -22 -104 -86 -113 -101 -3 -6 -11 -37 -17 -69 -6
-35 -20 -68 -34 -83 -14 -16 -26 -47 -33 -87 -6 -34 -22 -79 -35 -100 -14 -21
-30 -66 -37 -100 -9 -45 -19 -67 -35 -77 -16 -11 -26 -32 -34 -78 -7 -35 -23
-77 -37 -95 -13 -18 -30 -62 -38 -99 -8 -39 -22 -73 -31 -81 -10 -6 -24 -40
-32 -74 -8 -35 -25 -75 -38 -91 -14 -16 -29 -48 -35 -71 -16 -62 -32 -100 -51
-121 -10 -10 -21 -41 -24 -69 -5 -32 -15 -58 -30 -71 -23 -23 -45 -75 -45
-111 0 -12 -13 -39 -29 -59 -16 -20 -32 -50 -35 -67 -3 -16 -9 -43 -12 -59 -3
-17 -16 -43 -28 -58 -13 -15 -29 -52 -36 -82 -7 -30 -23 -66 -35 -80 -12 -14
-28 -47 -34 -75 -7 -27 -23 -66 -36 -86 -13 -21 -31 -66 -40 -100 -9 -35 -25
-73 -36 -85 -10 -11 -24 -47 -31 -80 -6 -34 -23 -76 -41 -101 -16 -23 -33 -63
-38 -90 -5 -26 -17 -59 -28 -73 -17 -24 -33 -66 -45 -121 -3 -14 -16 -37 -30
-51 -15 -18 -27 -48 -35 -89 -7 -43 -19 -71 -36 -89 -14 -15 -32 -52 -41 -85
-8 -33 -23 -69 -33 -80 -11 -11 -24 -47 -31 -80 -7 -33 -23 -72 -35 -87 -13
-15 -30 -58 -39 -101 -10 -45 -25 -82 -36 -92 -26 -23 -25 -70 0 -95 19 -19
33 -20 365 -20 341 0 346 0 380 23 19 12 42 38 50 57 9 19 21 44 27 55 29 50
48 96 48 114 0 24 18 70 37 92 7 9 20 46 27 82 8 36 28 91 45 120 17 30 31 66
31 79 0 47 37 127 90 191 38 47 40 47 766 47 455 0 692 -4 710 -11 16 -5 45
-27 64 -47 29 -29 38 -48 43 -87 4 -28 16 -65 28 -84 11 -18 29 -67 39 -108
10 -42 28 -85 40 -97 11 -13 26 -51 34 -89 8 -36 24 -80 36 -97 12 -17 28 -52
35 -79 12 -45 72 -137 101 -154 42 -24 665 -18 699 7 26 18 21 94 -8 152 -14
27 -31 69 -38 93 -7 24 -21 53 -30 66 -10 12 -24 50 -32 84 -8 34 -24 72 -35
84 -23 24 -52 97 -52 130 0 11 -11 35 -25 53 -14 18 -25 40 -25 48 0 20 -19
64 -43 99 -10 15 -25 55 -33 89 -8 33 -25 74 -39 90 -22 26 -45 84 -45 114 0
6 -13 35 -29 65 -16 30 -32 73 -35 95 -4 24 -17 50 -30 62 -17 14 -29 43 -41
98 -9 44 -25 88 -36 99 -20 22 -49 96 -49 125 0 10 -7 23 -15 30 -8 7 -24 44
-36 84 -11 39 -31 87 -44 106 -12 19 -28 60 -35 90 -7 30 -21 64 -31 75 -19
21 -49 96 -49 122 0 8 -9 28 -20 44 -12 15 -28 52 -36 81 -9 28 -27 67 -41 85
-14 19 -32 60 -40 93 -7 33 -24 76 -38 96 -13 20 -27 52 -31 73 -4 20 -19 61
-34 91 -16 30 -33 75 -40 100 -6 25 -22 56 -35 70 -13 14 -26 44 -30 68 -4 23
-18 64 -32 90 -14 26 -32 70 -39 97 -8 28 -25 73 -38 100 -14 28 -30 75 -36
105 -7 30 -22 69 -35 85 -12 17 -27 48 -34 70 -27 88 -35 95 -155 132 -76 24
-98 26 -341 30 -239 4 -262 3 -286 -14z m370 -995 c11 -18 29 -46 40 -61 10
-16 24 -63 31 -105 9 -57 20 -90 45 -127 18 -27 36 -69 40 -92 4 -23 15 -54
26 -67 11 -14 27 -48 35 -76 8 -28 25 -65 37 -83 13 -19 28 -65 35 -109 9 -53
20 -84 36 -101 12 -13 28 -46 35 -73 7 -27 23 -73 37 -102 38 -83 29 -143 -26
-175 -25 -15 -73 -17 -423 -17 -222 0 -407 4 -420 9 -51 20 -63 167 -18 215
11 12 29 47 40 78 11 31 31 77 45 102 14 26 26 58 26 72 0 29 14 60 42 91 18
19 26 42 45 123 4 14 15 37 26 51 10 15 23 48 28 73 5 26 22 77 39 115 16 38
30 85 30 104 0 54 20 98 64 144 50 51 77 54 105 11z"/>
<path d="M870 11680 c-115 -7 -161 -18 -176 -41 -20 -33 9 -199 43 -239 13
-15 28 -52 33 -81 6 -32 20 -63 35 -79 15 -15 26 -42 30 -70 11 -78 14 -88 45
-122 17 -18 30 -44 30 -58 0 -43 20 -99 44 -123 16 -16 26 -41 31 -76 4 -30
15 -61 25 -71 26 -26 40 -55 40 -84 0 -32 18 -74 45 -106 12 -14 28 -52 34
-85 7 -33 22 -70 33 -81 11 -12 26 -51 34 -87 10 -40 27 -80 44 -102 20 -25
31 -53 35 -90 5 -37 14 -60 31 -76 14 -13 28 -43 35 -78 6 -30 24 -78 39 -106
15 -27 31 -70 34 -95 5 -32 15 -54 35 -72 24 -23 30 -41 40 -105 9 -64 16 -81
36 -96 15 -11 25 -29 25 -43 0 -37 21 -114 31 -114 13 0 31 -39 46 -104 8 -35
24 -72 38 -86 24 -26 45 -86 45 -133 0 -16 10 -36 25 -49 14 -12 25 -27 25
-34 0 -41 25 -119 46 -144 16 -19 29 -52 36 -92 7 -43 18 -69 33 -83 21 -19
37 -68 50 -157 3 -21 14 -43 24 -50 12 -9 24 -37 32 -77 7 -36 22 -75 35 -90
12 -15 30 -53 39 -84 12 -43 23 -61 41 -69 13 -6 24 -14 24 -18 0 -34 523 -66
640 -39 90 20 140 60 140 113 0 8 10 27 23 43 13 15 30 55 37 88 8 34 24 69
36 80 29 28 44 59 44 93 0 39 19 92 41 118 11 11 23 42 28 68 5 27 18 61 30
77 19 25 30 61 46 142 3 15 18 39 34 53 22 20 30 37 36 79 3 31 17 69 30 90
14 19 32 66 40 102 9 37 24 77 34 88 11 11 25 46 32 78 7 32 22 67 34 80 24
24 40 67 50 133 3 23 14 50 24 61 20 21 41 76 41 107 0 12 16 46 35 76 19 30
35 64 35 77 0 29 19 71 47 106 15 18 23 42 23 66 0 25 10 53 30 83 19 28 34
69 40 102 10 61 14 71 42 102 11 12 26 52 33 88 9 42 24 79 40 97 14 17 25 42
25 55 0 45 22 114 40 127 12 8 24 40 33 86 11 50 24 82 41 100 16 17 29 48 37
90 7 35 21 73 31 83 24 24 38 61 38 98 0 37 18 79 47 107 15 14 23 34 23 56 0
39 18 97 30 97 11 0 40 58 40 79 0 9 9 41 21 71 32 84 32 84 9 105 -21 19 -38
20 -369 20 -260 0 -355 -4 -383 -13 -21 -8 -38 -18 -38 -23 0 -5 -16 -25 -35
-45 -23 -22 -35 -44 -35 -62 0 -40 -26 -131 -43 -151 -8 -9 -21 -47 -28 -85
-7 -38 -24 -85 -37 -105 -13 -19 -28 -61 -33 -95 -5 -34 -19 -72 -29 -86 -27
-34 -40 -66 -49 -121 -4 -25 -17 -61 -29 -80 -11 -19 -26 -56 -32 -84 -16 -68
-30 -106 -51 -133 -9 -12 -20 -46 -24 -74 -5 -34 -19 -69 -41 -101 -19 -27
-34 -59 -34 -72 0 -31 -20 -86 -41 -114 -10 -12 -21 -39 -24 -60 -9 -52 -25
-90 -50 -117 -14 -15 -25 -48 -33 -97 -9 -53 -19 -79 -32 -89 -13 -8 -24 -38
-34 -86 -8 -40 -24 -85 -35 -100 -18 -25 -27 -53 -45 -144 -3 -14 -17 -39 -30
-55 -14 -17 -32 -59 -41 -98 -8 -38 -24 -77 -35 -87 -10 -9 -24 -42 -30 -73
-14 -68 -31 -80 -95 -64 -25 6 -50 19 -54 28 -5 9 -14 68 -21 131 -10 97 -16
118 -34 135 -15 14 -27 43 -35 85 -7 36 -22 81 -34 100 -12 19 -28 62 -34 94
-7 33 -18 63 -25 68 -7 4 -18 11 -25 15 -6 5 -18 46 -26 91 -10 61 -20 87 -34
97 -20 14 -43 82 -43 126 0 12 -11 32 -24 44 -16 15 -27 39 -31 71 -12 87 -24
122 -45 129 -11 4 -20 9 -20 13 -1 39 -35 153 -54 181 -13 20 -29 61 -36 91
-7 30 -23 68 -36 83 -14 16 -24 42 -24 58 0 54 -22 120 -45 135 -17 11 -24 31
-35 101 -10 59 -20 94 -36 112 -12 14 -27 53 -34 86 -7 33 -21 69 -31 80 -25
28 -49 100 -49 146 0 29 -6 42 -23 54 -15 9 -28 33 -36 65 -20 77 -40 85 -281
115 -120 15 -197 16 -390 5z"/>
<path d="M28753 11680 c-149 -19 -183 -60 -119 -140 20 -25 36 -50 36 -56 0
-6 9 -19 20 -29 12 -10 29 -37 39 -60 10 -23 32 -57 50 -77 17 -20 31 -40 31
-45 0 -6 10 -23 22 -39 32 -40 96 -143 114 -184 9 -19 29 -49 44 -67 15 -17
33 -47 40 -67 6 -20 20 -41 31 -46 10 -6 19 -16 19 -22 0 -17 103 -192 121
-205 9 -7 27 -34 39 -60 12 -26 33 -61 46 -76 13 -16 24 -34 24 -41 0 -7 11
-23 24 -35 14 -13 34 -47 46 -76 12 -30 28 -56 35 -59 7 -2 27 -34 45 -70 17
-36 35 -66 39 -66 5 0 14 -15 21 -32 8 -18 23 -42 35 -53 12 -11 30 -40 41
-65 10 -25 29 -53 41 -63 12 -10 25 -28 29 -40 3 -12 16 -35 28 -52 12 -16 32
-50 45 -75 14 -25 31 -49 38 -53 8 -5 23 -30 34 -55 11 -26 29 -57 40 -68 11
-12 27 -52 34 -90 8 -37 21 -86 30 -108 25 -70 35 -292 35 -807 0 -320 4 -507
10 -525 21 -53 21 -53 356 -54 298 0 311 1 332 20 52 49 50 29 55 741 2 471 7
674 15 699 6 20 25 57 42 83 16 26 30 53 30 60 0 7 17 35 38 64 36 49 55 79
98 153 12 19 32 47 45 62 13 14 30 43 38 64 8 22 25 53 37 70 13 17 24 35 24
40 0 5 18 31 40 58 22 26 40 54 40 61 0 8 11 26 24 42 13 16 34 47 45 70 12
22 30 48 41 58 10 9 22 30 25 46 4 16 11 32 16 35 21 12 69 88 69 107 0 11 8
27 19 36 10 9 28 36 41 61 12 25 33 58 46 73 13 16 24 35 24 43 0 8 15 30 34
50 18 19 39 47 47 62 7 15 23 38 35 52 12 14 24 36 27 50 4 14 19 40 35 58 16
18 35 50 42 72 7 22 21 47 31 56 10 9 29 40 44 70 15 30 30 54 35 54 5 0 14
16 20 35 7 20 22 46 35 58 12 12 31 38 41 57 10 19 29 46 41 60 12 14 29 45
38 70 28 81 9 85 -395 95 -220 6 -274 5 -320 -8 -93 -25 -109 -34 -123 -70 -8
-18 -29 -49 -46 -69 -17 -20 -31 -42 -31 -50 0 -8 -10 -23 -21 -34 -12 -10
-31 -38 -41 -62 -11 -23 -32 -57 -47 -75 -15 -18 -31 -43 -34 -58 -4 -14 -20
-45 -37 -70 -16 -24 -30 -49 -30 -55 0 -6 -13 -27 -29 -47 -15 -20 -34 -57
-41 -83 -9 -31 -21 -49 -36 -56 -15 -7 -29 -28 -39 -58 -9 -26 -26 -57 -39
-69 -13 -12 -27 -36 -30 -53 -3 -17 -20 -46 -36 -65 -17 -19 -33 -48 -37 -64
-3 -19 -16 -35 -33 -44 -15 -8 -31 -26 -34 -41 -4 -15 -20 -46 -36 -69 -16
-23 -32 -55 -35 -71 -9 -37 -33 -91 -43 -96 -4 -2 -18 -18 -31 -35 -28 -41
-49 -41 -105 -2 -32 23 -49 45 -62 78 -9 25 -28 59 -41 74 -12 16 -23 37 -23
46 0 16 -54 107 -106 180 -9 13 -30 50 -46 81 -16 32 -35 61 -43 64 -8 3 -19
23 -24 44 -6 22 -25 56 -41 77 -17 21 -30 43 -30 49 0 7 -16 38 -35 70 -19 32
-35 64 -35 72 0 7 -13 28 -29 47 -16 18 -37 53 -47 78 -10 24 -27 54 -38 65
-12 12 -27 42 -34 67 -8 26 -21 52 -29 59 -8 7 -26 35 -39 63 -29 61 -88 135
-121 153 -13 7 -61 18 -106 23 -45 5 -113 13 -152 18 -106 15 -361 21 -442 11z"/>
<path d="M38265 11681 c-40 -10 -83 -39 -89 -59 -9 -31 -11 -3456 -2 -3511 15
-95 -2 -91 370 -91 179 0 336 4 349 9 43 16 50 58 58 336 4 143 13 328 19 410
16 207 29 2748 15 2795 -6 20 -23 43 -42 56 -28 19 -51 22 -220 28 -103 3
-228 13 -278 21 -98 16 -134 17 -180 6z"/>
</g>
</svg>
